<?xml version="1.0" encoding="UTF-8" standalone="no"?>
<svg
   xmlns:dc="http://purl.org/dc/elements/1.1/"
   xmlns:cc="http://creativecommons.org/ns#"
   xmlns:rdf="http://www.w3.org/1999/02/22-rdf-syntax-ns#"
   xmlns:svg="http://www.w3.org/2000/svg"
   xmlns="http://www.w3.org/2000/svg"
   xmlns:sodipodi="http://sodipodi.sourceforge.net/DTD/sodipodi-0.dtd"
   xmlns:inkscape="http://www.inkscape.org/namespaces/inkscape"
   enable-background="new 0 0 580 580"
   height="580"
   viewBox="0 0 580 580"
   width="580"
   version="1.1"
   id="svg857"
   sodipodi:docname="akmens_esoss.svg"
   inkscape:version="1.0.1 (3bc2e813f5, 2020-09-07)">
  <metadata
     id="metadata863">
    <rdf:RDF>
      <cc:Work
         rdf:about="">
        <dc:format>image/svg+xml</dc:format>
        <dc:type
           rdf:resource="http://purl.org/dc/dcmitype/StillImage" />
        <dc:title />
      </cc:Work>
    </rdf:RDF>
  </metadata>
  <defs
     id="defs861" />
  <sodipodi:namedview
     pagecolor="#ffffff"
     bordercolor="#666666"
     borderopacity="1"
     objecttolerance="10"
     gridtolerance="10"
     guidetolerance="10"
     inkscape:pageopacity="0"
     inkscape:pageshadow="2"
     inkscape:window-width="1831"
     inkscape:window-height="1054"
     id="namedview859"
     showgrid="false"
     units="px"
     inkscape:zoom="0.8137931"
     inkscape:cx="249.42732"
     inkscape:cy="258.65747"
     inkscape:window-x="80"
     inkscape:window-y="1071"
     inkscape:window-maximized="1"
     inkscape:current-layer="g1955"
     showguides="true"
     inkscape:guide-bbox="true"
     inkscape:object-nodes="false"
     inkscape:snap-others="false"
     inkscape:snap-grids="false"
     inkscape:document-rotation="0">
    <sodipodi:guide
       position="905.6356,761.86441"
       orientation="0,1"
       id="guide974"
       inkscape:locked="false" />
    <sodipodi:guide
       position="940.04238,-207.66949"
       orientation="0,1"
       id="guide976"
       inkscape:locked="false" />
  </sodipodi:namedview>
  <path
     id="path852"
     d="m 303.93681,35.728482 c -67.91799,0.0247 -140.42927,0.28576 -217.318674,0.35602 l -5.61721,1.59525 c -21.63402,6.14573 -38.00837,22.62431 -43.68712,43.96535 l -1.59831,6.00447 c 0,134.920558 0,269.841108 0,404.761668 l 1.59488,5.97878 c 6.2622,23.47493 24.60991,40.56729 48.13087,44.8383 v 0.006 c 146.771944,1.69523 223.457014,0.8559 407.692204,0.74456 l 5.61722,-1.59524 c 21.85402,-6.20818 37.47866,-21.80908 43.67854,-43.61275 l 1.60688,-5.65187 0.18501,-200.25241 c 0.16331,-176.65256 0.0584,-200.987648 -0.89079,-206.483368 -4.38275,-25.37506 -24.23671,-45.21421 -49.63325,-49.59325 -58.51758,-0.8743 -121.84227,-1.08593 -189.76025,-1.06122 z"
     style="fill:#ffffff;fill-opacity:1;stroke:#ffffff;stroke-width:71.43099213;stroke-miterlimit:4;stroke-dasharray:none;stroke-opacity:1"
     inkscape:connector-curvature="0"
     sodipodi:nodetypes="sccccccccccccsccs" />
  <g
     id="g985"
     transform="matrix(1.362095,0,0,1.362137,-726.1789,-177.53313)" />
  <g
     id="g1188"
     transform="matrix(0.82816346,0,0,0.82816346,50.603203,52.470297)" />
  <g
     id="g1940"
     transform="matrix(0.81738401,0,0,0.81738401,43.203568,43.34334)" />
  <g
     id="g2075"
     transform="matrix(0.82616049,0,0,0.82616049,75.248668,35.732714)" />
  <g
     id="g3106"
     transform="matrix(0.74211712,0,0,0.74211712,73.239582,72.917013)" />
  <g
     id="g1955"
     transform="matrix(0.61413516,0,0,0.61413516,-373.85845,667.0902)">
    <path
       id="path1957"
       style="fill:#4da329;fill-opacity:1"
       d="m 887.70642,-310.10364 c -16.69183,-5.7719 -28.4433,-19.22188 -31.46174,-36.00908 -0.83079,-4.62048 -0.84855,-9.97057 -0.0664,-20 0.58728,-7.53068 4.22202,-72.64215 8.0772,-144.69215 5.91188,-110.4881 7.38788,-133.34869 9.42654,-146 1.32942,-8.25 2.92873,-18.6 3.55403,-23 3.27953,-23.07699 13.4892,-50.8774 25.02044,-68.12941 9.54336,-14.2779 20.10821,-26.62998 38.90552,-45.48704 35.0785,-35.18998 57.21444,-52.27707 87.55749,-67.587 33.2268,-16.76499 48.5484,-21.65671 88.5,-28.25542 10.175,-1.68059 19.0815,-3.27054 19.7924,-3.53325 0.7108,-0.2627 10.3509,-1.62854 21.4226,-3.0352 31.3756,-3.98628 52.3762,-3.33471 69.2635,2.149 14.8589,4.82503 30.7409,18.49611 37.7306,32.4781 8.0766,16.15619 8.6447,27.99622 2.5144,52.40022 -6.8056,27.0924 -6.1345,16.79756 -14.1779,217.5 -4.1329,103.125 -7.5213,188.48911 -7.53,189.69803 l -0.016,2.19803 31.8055,0.30197 31.8055,0.30197 7.5192,3.71796 c 12.025,5.94595 21.0901,16.84672 24.3178,29.24214 6.4505,24.77132 -8.1327,49.53432 -32.9829,56.00699 -5.1969,1.35362 -29.8666,1.52909 -210.9252,1.50026 -191.88669,-0.0306 -205.36139,-0.14384 -210.05287,-1.76612 z m 266.91868,-92.45123 c 0.244,-1.2375 2.9877,-68.4 6.0971,-149.25 8.1808,-212.71842 9.2886,-238.25436 10.6592,-245.71888 0.6785,-3.69539 0.9972,-6.95529 0.7083,-7.24424 -1.665,-1.66502 -61.2297,8.90333 -74.0748,13.14282 -12.374,4.08402 -36.0863,15.77262 -47.4558,23.39261 -19.8064,13.27458 -58.57359,50.96791 -70.51383,68.56069 -4.3947,6.47518 -9.49027,19.18913 -11.36244,28.35048 -5.11217,25.016 -6.39935,40.76434 -12.45848,152.42683 -3.30268,60.86435 -6.00487,112.44609 -6.00487,114.62608 v 3.96361 h 101.98092 101.981 z m -253.13659,94.55701 c 0.97297,-0.25354 2.32297,-0.23687 3,0.0371 0.67703,0.27393 -0.11903,0.48137 -1.76903,0.46099 -1.65,-0.0204 -2.20394,-0.2445 -1.23097,-0.49804 z m 146.49259,-0.0143 c 1.244,-0.23919 3.044,-0.23011 4,0.0202 0.9561,0.25029 -0.062,0.446 -2.2616,0.4349 -2.2,-0.0111 -2.9823,-0.21589 -1.7384,-0.45508 z m 147.9884,0.002 c 1.2375,-0.23836 3.2625,-0.23836 4.5,0 1.2375,0.23835 0.225,0.43337 -2.25,0.43337 -2.475,0 -3.4875,-0.19502 -2.25,-0.43337 z m -339.59212,-66.29471 c 0,-1.375 0.22697,-1.9375 0.50438,-1.25 0.27741,0.6875 0.27741,1.8125 0,2.5 -0.27741,0.6875 -0.50438,0.125 -0.50438,-1.25 z m 473.24712,-12.25 -1.905,-2.25 2.25,1.90499 c 2.1144,1.79022 2.7052,2.59501 1.905,2.59501 -0.1898,0 -1.2023,-1.0125 -2.25,-2.25 z m -472.21007,-6.25 c 0.0204,-1.65 0.2445,-2.20394 0.49804,-1.23097 0.25354,0.97297 0.23687,2.32297 -0.0371,3 -0.27393,0.67703 -0.48137,-0.11903 -0.46099,-1.76903 z m 402.61557,-7.24809 c 7.8708,-0.16916 20.4708,-0.16875 28,9.2e-4 7.5292,0.16966 1.0895,0.30807 -14.3105,0.30756 -15.4,-5e-4 -21.5603,-0.13932 -13.6895,-0.30848 z m -105.6156,-4.75191 c 0.02,-1.65 0.2445,-2.20394 0.4981,-1.23097 0.2535,0.97297 0.2368,2.32297 -0.037,3 -0.274,0.67703 -0.4814,-0.11903 -0.461,-1.76903 z m -296.03702,-6.5 c 0,-1.375 0.22697,-1.9375 0.50438,-1.25 0.27741,0.6875 0.27741,1.8125 0,2.5 -0.27741,0.6875 -0.50438,0.125 -0.50438,-1.25 z m 388.03702,-0.5 c 0.02,-1.65 0.2445,-2.20394 0.4981,-1.23097 0.2535,0.97297 0.2368,2.32297 -0.037,3 -0.274,0.67703 -0.4814,-0.11903 -0.461,-1.76903 z m -296.03703,-3.5 c 0,-1.375 0.22698,-1.9375 0.50439,-1.25 0.27741,0.6875 0.27741,1.8125 0,2.5 -0.27741,0.6875 -0.50439,0.125 -0.50439,-1.25 z m -90.96294,-14.5 c 0.0204,-1.65 0.2445,-2.20394 0.49804,-1.23097 0.25354,0.97297 0.23687,2.32297 -0.0371,3 -0.27393,0.67703 -0.48137,-0.11903 -0.46099,-1.76903 z m 296.03707,-0.5 c 0,-1.925 0.2058,-2.7125 0.4573,-1.75 0.2515,0.9625 0.2515,2.5375 0,3.5 -0.2515,0.9625 -0.4573,0.175 -0.4573,-1.75 z m -204.07413,-3 c 0,-1.375 0.22698,-1.9375 0.50439,-1.25 0.27741,0.6875 0.27741,1.8125 0,2.5 -0.27741,0.6875 -0.50439,0.125 -0.50439,-1.25 z m 296.07413,-4 c 0,-1.925 0.2058,-2.7125 0.4573,-1.75 0.2515,0.9625 0.2515,2.5375 0,3.5 -0.2515,0.9625 -0.4573,0.175 -0.4573,-1.75 z m -387.07412,-11 c 0,-1.375 0.22697,-1.9375 0.50438,-1.25 0.27741,0.6875 0.27741,1.8125 0,2.5 -0.27741,0.6875 -0.50438,0.125 -0.50438,-1.25 z m 91.99999,-4 c 0,-1.375 0.22698,-1.9375 0.50439,-1.25 0.27741,0.6875 0.27741,1.8125 0,2.5 -0.27741,0.6875 -0.50439,0.125 -0.50439,-1.25 z m 204.03703,-3.5 c 0.02,-1.65 0.2445,-2.20394 0.4981,-1.23097 0.2535,0.97297 0.2368,2.32297 -0.037,3 -0.274,0.67703 -0.4814,-0.11903 -0.461,-1.76903 z m 92,-7 c 0.02,-1.65 0.2445,-2.20394 0.4981,-1.23097 0.2535,0.97297 0.2368,2.32297 -0.037,3 -0.274,0.67703 -0.4814,-0.11903 -0.461,-1.76903 z m -386.99997,-4 c 0.0204,-1.65 0.2445,-2.20394 0.49804,-1.23097 0.25354,0.97297 0.23687,2.32297 -0.0371,3 -0.27393,0.67703 -0.48137,-0.11903 -0.46099,-1.76903 z m 91.96294,-3.5 c 0,-1.375 0.22698,-1.9375 0.50439,-1.25 0.27741,0.6875 0.27741,1.8125 0,2.5 -0.27741,0.6875 -0.50439,0.125 -0.50439,-1.25 z m 204.07413,-11 c 0,-1.925 0.2058,-2.7125 0.4573,-1.75 0.2515,0.9625 0.2515,2.5375 0,3.5 -0.2515,0.9625 -0.4573,0.175 -0.4573,-1.75 z m -295.07412,-4 c 0,-1.375 0.22697,-1.9375 0.50438,-1.25 0.27741,0.6875 0.27741,1.8125 0,2.5 -0.27741,0.6875 -0.50438,0.125 -0.50438,-1.25 z m 387.07412,-3 c 0,-1.925 0.2058,-2.7125 0.4573,-1.75 0.2515,0.9625 0.2515,2.5375 0,3.5 -0.2515,0.9625 -0.4573,0.175 -0.4573,-1.75 z m -295.07413,-1 c 0,-1.375 0.22698,-1.9375 0.50439,-1.25 0.27741,0.6875 0.27741,1.8125 0,2.5 -0.27741,0.6875 -0.50439,0.125 -0.50439,-1.25 z m -90.96294,-14.5 c 0.0204,-1.65 0.2445,-2.20394 0.49804,-1.23097 0.25354,0.97297 0.23687,2.32297 -0.0371,3 -0.27393,0.67703 -0.48137,-0.11903 -0.46099,-1.76903 z m 295.03707,-2.5 c 0,-1.925 0.2058,-2.7125 0.4573,-1.75 0.2515,0.9625 0.2515,2.5375 0,3.5 -0.2515,0.9625 -0.4573,0.175 -0.4573,-1.75 z m -203.07413,-1 c 0,-1.375 0.22698,-1.9375 0.50439,-1.25 0.27741,0.6875 0.27741,1.8125 0,2.5 -0.27741,0.6875 -0.50439,0.125 -0.50439,-1.25 z m 295.07413,-6 c 0,-1.925 0.2058,-2.7125 0.4573,-1.75 0.2515,0.9625 0.2515,2.5375 0,3.5 -0.2515,0.9625 -0.4573,0.175 -0.4573,-1.75 z m -386.07412,-9 c 0,-1.375 0.22697,-1.9375 0.50438,-1.25 0.27741,0.6875 0.27741,1.8125 0,2.5 -0.27741,0.6875 -0.50438,0.125 -0.50438,-1.25 z m 91.99999,-4 c 0,-1.375 0.22698,-1.9375 0.50439,-1.25 0.27741,0.6875 0.27741,1.8125 0,2.5 -0.27741,0.6875 -0.50439,0.125 -0.50439,-1.25 z m 203.03703,-5.5 c 0.02,-1.65 0.2445,-2.20394 0.4981,-1.23097 0.2535,0.97297 0.2368,2.32297 -0.037,3 -0.274,0.67703 -0.4814,-0.11903 -0.461,-1.76903 z m 92,-7 c 0.02,-1.65 0.2445,-2.20394 0.4981,-1.23097 0.2535,0.97297 0.2368,2.32297 -0.037,3 -0.274,0.67703 -0.4814,-0.11903 -0.461,-1.76903 z m -385.99997,-2 c 0.0204,-1.65 0.2445,-2.20394 0.49804,-1.23097 0.25354,0.97297 0.23687,2.32297 -0.0371,3 -0.27393,0.67703 -0.48137,-0.11903 -0.46099,-1.76903 z m 91.96294,-3.5 c 0,-1.375 0.22698,-1.9375 0.50439,-1.25 0.27741,0.6875 0.27741,1.8125 0,2.5 -0.27741,0.6875 -0.50439,0.125 -0.50439,-1.25 z m 203.07413,-13 c 0,-1.925 0.2058,-2.7125 0.4573,-1.75 0.2515,0.9625 0.2515,2.5375 0,3.5 -0.2515,0.9625 -0.4573,0.175 -0.4573,-1.75 z m -294.07412,-2 c 0,-1.375 0.22697,-1.9375 0.50438,-1.25 0.27741,0.6875 0.27741,1.8125 0,2.5 -0.27741,0.6875 -0.50438,0.125 -0.50438,-1.25 z m 91.99999,-4 c 0,-1.375 0.22698,-1.9375 0.50439,-1.25 0.27741,0.6875 0.27741,1.8125 0,2.5 -0.27741,0.6875 -0.50439,0.125 -0.50439,-1.25 z m 294.07413,-1 c 0,-1.925 0.2058,-2.7125 0.4573,-1.75 0.2515,0.9625 0.2515,2.5375 0,3.5 -0.2515,0.9625 -0.4573,0.175 -0.4573,-1.75 z m -385.07412,-13 c 0,-1.375 0.22697,-1.9375 0.50438,-1.25 0.27741,0.6875 0.27741,1.8125 0,2.5 -0.27741,0.6875 -0.50438,0.125 -0.50438,-1.25 z m 91.99999,-4 c 0,-1.375 0.22698,-1.9375 0.50439,-1.25 0.27741,0.6875 0.27741,1.8125 0,2.5 -0.27741,0.6875 -0.50439,0.125 -0.50439,-1.25 z m 202.03703,-1.5 c 0.02,-1.65 0.2445,-2.20394 0.4981,-1.23097 0.2535,0.97297 0.2368,2.32297 -0.037,3 -0.274,0.67703 -0.4814,-0.11903 -0.461,-1.76903 z m 92,-7 c 0.02,-1.65 0.2445,-2.20394 0.4981,-1.23097 0.2535,0.97297 0.2368,2.32297 -0.037,3 -0.274,0.67703 -0.4814,-0.11903 -0.461,-1.76903 z m -385.03702,-6.5 c 0,-1.375 0.22697,-1.9375 0.50438,-1.25 0.27741,0.6875 0.27741,1.8125 0,2.5 -0.27741,0.6875 -0.50438,0.125 -0.50438,-1.25 z m 91.99999,-4 c 0,-1.375 0.22698,-1.9375 0.50439,-1.25 0.27741,0.6875 0.27741,1.8125 0,2.5 -0.27741,0.6875 -0.50439,0.125 -0.50439,-1.25 z m 202.07413,-8 c 0,-1.925 0.2058,-2.7125 0.4573,-1.75 0.2515,0.9625 0.2515,2.5375 0,3.5 -0.2515,0.9625 -0.4573,0.175 -0.4573,-1.75 z m -293.07412,-6 c 0,-1.375 0.22697,-1.9375 0.50438,-1.25 0.27741,0.6875 0.27741,1.8125 0,2.5 -0.27741,0.6875 -0.50438,0.125 -0.50438,-1.25 z m 385.07412,-1 c 0,-1.925 0.2058,-2.7125 0.4573,-1.75 0.2515,0.9625 0.2515,2.5375 0,3.5 -0.2515,0.9625 -0.4573,0.175 -0.4573,-1.75 z m -293.07413,-3 c 0,-1.375 0.22698,-1.9375 0.50439,-1.25 0.27741,0.6875 0.27741,1.8125 0,2.5 -0.27741,0.6875 -0.50439,0.125 -0.50439,-1.25 z m -90.92589,-16 c 0,-1.925 0.2058,-2.7125 0.45733,-1.75 0.25152,0.9625 0.25152,2.5375 0,3.5 -0.25153,0.9625 -0.45733,0.175 -0.45733,-1.75 z m 292.96292,0.5 c 0.02,-1.65 0.2445,-2.20394 0.4981,-1.23097 0.2535,0.97297 0.2368,2.32297 -0.037,3 -0.274,0.67703 -0.4814,-0.11903 -0.461,-1.76903 z m 92,-7 c 0.02,-1.65 0.2445,-2.20394 0.4981,-1.23097 0.2535,0.97297 0.2368,2.32297 -0.037,3 -0.274,0.67703 -0.4814,-0.11903 -0.461,-1.76903 z m -90.9629,-18.5 c 0,-1.925 0.2058,-2.7125 0.4573,-1.75 0.2515,0.9625 0.2515,2.5375 0,3.5 -0.2515,0.9625 -0.4573,0.175 -0.4573,-1.75 z m 92,-7 c 0,-1.925 0.2058,-2.7125 0.4573,-1.75 0.2515,0.9625 0.2515,2.5375 0,3.5 -0.2515,0.9625 -0.4573,0.175 -0.4573,-1.75 z m -91.0371,-18.5 c 0.02,-1.65 0.2445,-2.20394 0.4981,-1.23097 0.2535,0.97297 0.2368,2.32297 -0.037,3 -0.274,0.67703 -0.4814,-0.11903 -0.461,-1.76903 z m 92,-7 c 0.02,-1.65 0.2445,-2.20394 0.4981,-1.23097 0.2535,0.97297 0.2368,2.32297 -0.037,3 -0.274,0.67703 -0.4814,-0.11903 -0.461,-1.76903 z m -90.9629,-18.5 c 0,-1.925 0.2058,-2.7125 0.4573,-1.75 0.2515,0.9625 0.2515,2.5375 0,3.5 -0.2515,0.9625 -0.4573,0.175 -0.4573,-1.75 z m 92,-7 c 0,-1.925 0.2058,-2.7125 0.4573,-1.75 0.2515,0.9625 0.2515,2.5375 0,3.5 -0.2515,0.9625 -0.4573,0.175 -0.4573,-1.75 z m -252.2499,-12.25 c 9.736,-9.98483 11.0179,-11.20434 11.0179,-10.48213 0,0.14732 -4.8375,4.98482 -10.75,10.75 l -10.75002,10.48213 z m 161.2499,-5.75 c 0,-1.925 0.2058,-2.7125 0.4573,-1.75 0.2515,0.9625 0.2515,2.5375 0,3.5 -0.2515,0.9625 -0.4573,0.175 -0.4573,-1.75 z m 92,-7 c 0,-1.925 0.2058,-2.7125 0.4573,-1.75 0.2515,0.9625 0.2515,2.5375 0,3.5 -0.2515,0.9625 -0.4573,0.175 -0.4573,-1.75 z m -234.232,-5.37756 c 0,-0.20765 0.7875,-0.99515 1.75,-1.75 1.586,-1.24387 1.6214,-1.2085 0.3775,0.37756 -1.3063,1.66575 -2.1275,2.19548 -2.1275,1.37244 z m 8,-7 c 0,-0.20765 0.7875,-0.99515 1.75,-1.75 1.586,-1.24387 1.6214,-1.2085 0.3775,0.37756 -1.3063,1.66575 -2.1275,2.19548 -2.1275,1.37244 z m 135.1949,-6.12244 c 0.02,-1.65 0.2445,-2.20394 0.4981,-1.23097 0.2535,0.97297 0.2368,2.32297 -0.037,3 -0.274,0.67703 -0.4814,-0.11903 -0.461,-1.76903 z m 92,-7 c 0.02,-1.65 0.2445,-2.20394 0.4981,-1.23097 0.2535,0.97297 0.2368,2.32297 -0.037,3 -0.274,0.67703 -0.4814,-0.11903 -0.461,-1.76903 z m -336.69492,-8.5 c 0.99549,-1.1 2.03497,-2 2.30997,-2 0.275,0 -0.31448,0.9 -1.30997,2 -0.99549,1.1 -2.03498,2 -2.30998,2 -0.275,0 0.31449,-0.9 1.30998,-2 z m 245.57892,-10.58333 c 0.048,-1.16495 0.285,-1.4019 0.6042,-0.60417 0.2889,0.72187 0.2533,1.58437 -0.079,1.91667 -0.3323,0.33229 -0.5686,-0.25834 -0.5252,-1.3125 z m 2,-13 c 0.048,-1.16495 0.285,-1.4019 0.6042,-0.60417 0.2889,0.72187 0.2533,1.58437 -0.079,1.91667 -0.3323,0.33229 -0.5686,-0.25834 -0.5252,-1.3125 z m -211.57892,-12.41667 c 0.99549,-1.1 2.03498,-2 2.30998,-2 0.275,0 -0.31449,0.9 -1.30998,2 -0.99549,1.1 -2.03498,2 -2.30998,2 -0.275,0 0.31449,-0.9 1.30998,-2 z m 8.5,-7.37756 c 0,-0.20765 0.7875,-0.99515 1.75,-1.75 1.58606,-1.24387 1.62143,-1.2085 0.37756,0.37756 -1.30637,1.66575 -2.12756,2.19548 -2.12756,1.37244 z m 218.76162,-79.3297 c 1.244,-0.23919 3.044,-0.23011 4,0.0202 0.9561,0.25029 -0.062,0.44599 -2.2616,0.4349 -2.2,-0.0111 -2.9823,-0.21589 -1.7384,-0.45508 z m 8.4884,0.0179 c 0.9625,-0.25153 2.5375,-0.25153 3.5,0 0.9625,0.25153 0.175,0.45732 -1.75,0.45732 -1.925,0 -2.7125,-0.20579 -1.75,-0.45732 z m -254.92658,590.93969 c 19.70289,-0.15167 51.65289,-0.15159 70.99998,1.7e-4 19.3471,0.15175 3.2266,0.27584 -35.82342,0.27575 -39.05,-1e-4 -54.87945,-0.12426 -35.17656,-0.27592 z m 147.99998,0 c 19.7029,-0.15167 51.6529,-0.15159 71,1.7e-4 19.3471,0.15175 3.2266,0.27584 -35.8234,0.27575 -39.05,-1e-4 -54.8795,-0.12426 -35.1766,-0.27592 z m 254.7555,-45.83366 c 0.048,-1.16495 0.285,-1.4019 0.6042,-0.60417 0.2889,0.72187 0.2533,1.58438 -0.079,1.91667 -0.3323,0.33229 -0.5686,-0.25834 -0.5252,-1.3125 z m -486.92102,-24.41667 c 0,-1.375 0.22697,-1.9375 0.50438,-1.25 0.27741,0.6875 0.27741,1.8125 0,2.5 -0.27741,0.6875 -0.50438,0.125 -0.50438,-1.25 z m 1,-19 c 0,-1.375 0.22697,-1.9375 0.50438,-1.25 0.27741,0.6875 0.27741,1.8125 0,2.5 -0.27741,0.6875 -0.50438,0.125 -0.50438,-1.25 z m 389.07412,-9 c 0,-1.925 0.2058,-2.7125 0.4573,-1.75 0.2515,0.9625 0.2515,2.5375 0,3.5 -0.2515,0.9625 -0.4573,0.175 -0.4573,-1.75 z m -92,-4 c 0,-1.925 0.2058,-2.7125 0.4573,-1.75 0.2515,0.9625 0.2515,2.5375 0,3.5 -0.2515,0.9625 -0.4573,0.175 -0.4573,-1.75 z m -204.07413,-1 c 0,-1.375 0.22698,-1.9375 0.50439,-1.25 0.27741,0.6875 0.27741,1.8125 0,2.5 -0.27741,0.6875 -0.50439,0.125 -0.50439,-1.25 z m -91.99999,-4 c 0,-1.375 0.22697,-1.9375 0.50438,-1.25 0.27741,0.6875 0.27741,1.8125 0,2.5 -0.27741,0.6875 -0.50438,0.125 -0.50438,-1.25 z m 92.99999,-14 c 0,-1.375 0.22698,-1.9375 0.50439,-1.25 0.27741,0.6875 0.27741,1.8125 0,2.5 -0.27741,0.6875 -0.50439,0.125 -0.50439,-1.25 z m 296.07413,-2 c 0,-1.925 0.2058,-2.7125 0.4573,-1.75 0.2515,0.9625 0.2515,2.5375 0,3.5 -0.2515,0.9625 -0.4573,0.175 -0.4573,-1.75 z m -388.07412,-3 c 0,-1.375 0.22697,-1.9375 0.50438,-1.25 0.27741,0.6875 0.27741,1.8125 0,2.5 -0.27741,0.6875 -0.50438,0.125 -0.50438,-1.25 z m 296.03702,-1.5 c 0.02,-1.65 0.2445,-2.20394 0.4981,-1.23097 0.2535,0.97297 0.2368,2.32297 -0.037,3 -0.274,0.67703 -0.4814,-0.11903 -0.461,-1.76903 z m -203.03703,-12.5 c 0,-1.375 0.22698,-1.9375 0.50439,-1.25 0.27741,0.6875 0.27741,1.8125 0,2.5 -0.27741,0.6875 -0.50439,0.125 -0.50439,-1.25 z m -91.99999,-4 c 0,-1.375 0.22697,-1.9375 0.50438,-1.25 0.27741,0.6875 0.27741,1.8125 0,2.5 -0.27741,0.6875 -0.50438,0.125 -0.50438,-1.25 z m 388.07412,-5 c 0,-1.925 0.2058,-2.7125 0.4573,-1.75 0.2515,0.9625 0.2515,2.5375 0,3.5 -0.2515,0.9625 -0.4573,0.175 -0.4573,-1.75 z m -92,-4 c 0,-1.925 0.2058,-2.7125 0.4573,-1.75 0.2515,0.9625 0.2515,2.5375 0,3.5 -0.2515,0.9625 -0.4573,0.175 -0.4573,-1.75 z m -203.07413,-5 c 0,-1.375 0.22698,-1.9375 0.50439,-1.25 0.27741,0.6875 0.27741,1.8125 0,2.5 -0.27741,0.6875 -0.50439,0.125 -0.50439,-1.25 z m -91.99999,-5 c 0,-1.375 0.22697,-1.9375 0.50438,-1.25 0.27741,0.6875 0.27741,1.8125 0,2.5 -0.27741,0.6875 -0.50438,0.125 -0.50438,-1.25 z m 388.07412,-11 c 0,-1.925 0.2058,-2.7125 0.4573,-1.75 0.2515,0.9625 0.2515,2.5375 0,3.5 -0.2515,0.9625 -0.4573,0.175 -0.4573,-1.75 z m -295.07413,-3 c 0,-1.375 0.22698,-1.9375 0.50439,-1.25 0.27741,0.6875 0.27741,1.8125 0,2.5 -0.27741,0.6875 -0.50439,0.125 -0.50439,-1.25 z m 203.03703,-1.5 c 0.02,-1.65 0.2445,-2.20394 0.4981,-1.23097 0.2535,0.97297 0.2368,2.32297 -0.037,3 -0.274,0.67703 -0.4814,-0.11903 -0.461,-1.76903 z m -295.03702,-2.5 c 0,-1.375 0.22697,-1.9375 0.50438,-1.25 0.27741,0.6875 0.27741,1.8125 0,2.5 -0.27741,0.6875 -0.50438,0.125 -0.50438,-1.25 z m 92.99999,-14 c 0,-1.375 0.22698,-1.9375 0.50439,-1.25 0.27741,0.6875 0.27741,1.8125 0,2.5 -0.27741,0.6875 -0.50439,0.125 -0.50439,-1.25 z m 295.03703,-4.5 c 0.02,-1.65 0.2445,-2.20394 0.4981,-1.23097 0.2535,0.97297 0.2368,2.32297 -0.037,3 -0.274,0.67703 -0.4814,-0.11903 -0.461,-1.76903 z m -387.03702,-0.5 c 0,-1.375 0.22697,-1.9375 0.50438,-1.25 0.27741,0.6875 0.27741,1.8125 0,2.5 -0.27741,0.6875 -0.50438,0.125 -0.50438,-1.25 z m 295.07412,-4 c 0,-1.925 0.2058,-2.7125 0.4573,-1.75 0.2515,0.9625 0.2515,2.5375 0,3.5 -0.2515,0.9625 -0.4573,0.175 -0.4573,-1.75 z m -202.07413,-10 c 0,-1.375 0.22698,-1.9375 0.50439,-1.25 0.27741,0.6875 0.27741,1.8125 0,2.5 -0.27741,0.6875 -0.50439,0.125 -0.50439,-1.25 z m -91.99999,-4 c 0,-1.375 0.22697,-1.9375 0.50438,-1.25 0.27741,0.6875 0.27741,1.8125 0,2.5 -0.27741,0.6875 -0.50438,0.125 -0.50438,-1.25 z m 387.07412,-7 c 0,-1.925 0.2058,-2.7125 0.4573,-1.75 0.2515,0.9625 0.2515,2.5375 0,3.5 -0.2515,0.9625 -0.4573,0.175 -0.4573,-1.75 z m -92,-4 c 0,-1.925 0.2058,-2.7125 0.4573,-1.75 0.2515,0.9625 0.2515,2.5375 0,3.5 -0.2515,0.9625 -0.4573,0.175 -0.4573,-1.75 z m -202.07413,-3 c 0,-1.375 0.22698,-1.9375 0.50439,-1.25 0.27741,0.6875 0.27741,1.8125 0,2.5 -0.27741,0.6875 -0.50439,0.125 -0.50439,-1.25 z m -91.99999,-5 c 0,-1.375 0.22697,-1.9375 0.50438,-1.25 0.27741,0.6875 0.27741,1.8125 0,2.5 -0.27741,0.6875 -0.50438,0.125 -0.50438,-1.25 z m 387.03702,-13.5 c 0.02,-1.65 0.2445,-2.20394 0.4981,-1.23097 0.2535,0.97297 0.2368,2.32297 -0.037,3 -0.274,0.67703 -0.4814,-0.11903 -0.461,-1.76903 z m -294.03703,-0.5 c 0,-1.375 0.22698,-1.9375 0.50439,-1.25 0.27741,0.6875 0.27741,1.8125 0,2.5 -0.27741,0.6875 -0.50439,0.125 -0.50439,-1.25 z m 202.07413,-4 c 0,-1.925 0.2058,-2.7125 0.4573,-1.75 0.2515,0.9625 0.2515,2.5375 0,3.5 -0.2515,0.9625 -0.4573,0.175 -0.4573,-1.75 z m -294.07412,0 c 0,-1.375 0.22697,-1.9375 0.50438,-1.25 0.27741,0.6875 0.27741,1.8125 0,2.5 -0.27741,0.6875 -0.50438,0.125 -0.50438,-1.25 z m 92.99999,-14 c 0,-1.375 0.22698,-1.9375 0.50439,-1.25 0.27741,0.6875 0.27741,1.8125 0,2.5 -0.27741,0.6875 -0.50439,0.125 -0.50439,-1.25 z m -91.96294,-4.5 c 0.0204,-1.65 0.2445,-2.20394 0.49804,-1.23097 0.25354,0.97297 0.23687,2.32297 -0.0371,3 -0.27393,0.67703 -0.48137,-0.11903 -0.46099,-1.76903 z m 386.03707,-2.5 c 0,-1.925 0.2058,-2.7125 0.4573,-1.75 0.2515,0.9625 0.2515,2.5375 0,3.5 -0.2515,0.9625 -0.4573,0.175 -0.4573,-1.75 z m -92,-4 c 0,-1.925 0.2058,-2.7125 0.4573,-1.75 0.2515,0.9625 0.2515,2.5375 0,3.5 -0.2515,0.9625 -0.4573,0.175 -0.4573,-1.75 z m -201.07413,-8 c 0,-1.375 0.22698,-1.9375 0.50439,-1.25 0.27741,0.6875 0.27741,1.8125 0,2.5 -0.27741,0.6875 -0.50439,0.125 -0.50439,-1.25 z m -91.99999,-4 c 0,-1.375 0.22697,-1.9375 0.50438,-1.25 0.27741,0.6875 0.27741,1.8125 0,2.5 -0.27741,0.6875 -0.50438,0.125 -0.50438,-1.25 z m 386.03702,-9.5 c 0.02,-1.65 0.2445,-2.20394 0.4981,-1.23097 0.2535,0.97297 0.2368,2.32297 -0.037,3 -0.274,0.67703 -0.4814,-0.11903 -0.461,-1.76903 z m -92,-4 c 0.02,-1.65 0.2445,-2.20394 0.4981,-1.23097 0.2535,0.97297 0.2368,2.32297 -0.037,3 -0.274,0.67703 -0.4814,-0.11903 -0.461,-1.76903 z m -201.03703,-0.5 c 0,-1.375 0.22698,-1.9375 0.50439,-1.25 0.27741,0.6875 0.27741,1.8125 0,2.5 -0.27741,0.6875 -0.50439,0.125 -0.50439,-1.25 z m -91.96294,-4.5 c 0.0204,-1.65 0.2445,-2.20394 0.49804,-1.23097 0.25354,0.97297 0.23687,2.32297 -0.0371,3 -0.27393,0.67703 -0.48137,-0.11903 -0.46099,-1.76903 z m 386.03707,-16.5 c 0,-1.925 0.2058,-2.7125 0.4573,-1.75 0.2515,0.9625 0.2515,2.5375 0,3.5 -0.2515,0.9625 -0.4573,0.175 -0.4573,-1.75 z m -92,-4 c 0,-1.925 0.2058,-2.7125 0.4573,-1.75 0.2515,0.9625 0.2515,2.5375 0,3.5 -0.2515,0.9625 -0.4573,0.175 -0.4573,-1.75 z m -293.15307,0.41667 c 0.048,-1.16495 0.28494,-1.4019 0.60416,-0.60417 0.28887,0.72187 0.25335,1.58438 -0.079,1.91667 -0.33229,0.33229 -0.56864,-0.25834 -0.52522,-1.3125 z m 386.15307,-21.41667 c 0,-1.925 0.2058,-2.7125 0.4573,-1.75 0.2515,0.9625 0.2515,2.5375 0,3.5 -0.2515,0.9625 -0.4573,0.175 -0.4573,-1.75 z m -92.0371,-4.5 c 0.02,-1.65 0.2445,-2.20394 0.4981,-1.23097 0.2535,0.97297 0.2368,2.32297 -0.037,3 -0.274,0.67703 -0.4814,-0.11903 -0.461,-1.76903 z m 93.0371,-21.5 c 0,-1.925 0.2058,-2.7125 0.4573,-1.75 0.2515,0.9625 0.2515,2.5375 0,3.5 -0.2515,0.9625 -0.4573,0.175 -0.4573,-1.75 z m -92,-4 c 0,-1.925 0.2058,-2.7125 0.4573,-1.75 0.2515,0.9625 0.2515,2.5375 0,3.5 -0.2515,0.9625 -0.4573,0.175 -0.4573,-1.75 z m 93,-21 c 0,-1.925 0.2058,-2.7125 0.4573,-1.75 0.2515,0.9625 0.2515,2.5375 0,3.5 -0.2515,0.9625 -0.4573,0.175 -0.4573,-1.75 z m -92.0371,-4.5 c 0.02,-1.65 0.2445,-2.20394 0.4981,-1.23097 0.2535,0.97297 0.2368,2.32297 -0.037,3 -0.274,0.67703 -0.4814,-0.11903 -0.461,-1.76903 z m 93,-21 c 0.02,-1.65 0.2445,-2.20394 0.4981,-1.23097 0.2535,0.97297 0.2368,2.32297 -0.037,3 -0.274,0.67703 -0.4814,-0.11903 -0.461,-1.76903 z m -91.9629,-4.5 c 0,-1.925 0.2058,-2.7125 0.4573,-1.75 0.2515,0.9625 0.2515,2.5375 0,3.5 -0.2515,0.9625 -0.4573,0.175 -0.4573,-1.75 z m -145.232,-3.37756 c 0,-0.20765 0.7875,-0.99515 1.75,-1.75 1.586,-1.24387 1.6214,-1.2085 0.3775,0.37756 -1.3063,1.66575 -2.1275,2.19548 -2.1275,1.37244 z m 238.232,-17.62244 c 0,-1.925 0.2058,-2.7125 0.4573,-1.75 0.2515,0.9625 0.2515,2.5375 0,3.5 -0.2515,0.9625 -0.4573,0.175 -0.4573,-1.75 z m -92,-4 c 0,-1.925 0.2058,-2.7125 0.4573,-1.75 0.2515,0.9625 0.2515,2.5375 0,3.5 -0.2515,0.9625 -0.4573,0.175 -0.4573,-1.75 z m -227.23202,-28.5 c 5.20327,-5.225 9.6855,-9.5 9.9605,-9.5 0.275,0 -3.75723,4.275 -8.9605,9.5 -5.20327,5.225 -9.6855,9.5 -9.9605,9.5 -0.275,0 3.75723,-4.275 8.9605,-9.5 z m 228.81252,-10.18311 c 0.7219,-0.28887 1.5844,-0.25335 1.9167,0.0789 0.3322,0.33229 -0.2584,0.56864 -1.3125,0.52522 -1.165,-0.048 -1.4019,-0.28494 -0.6042,-0.60416 z m 102.4195,-27.31689 c 0,-1.925 0.2058,-2.7125 0.4573,-1.75 0.2515,0.9625 0.2515,2.5375 0,3.5 -0.2515,0.9625 -0.4573,0.175 -0.4573,-1.75 z m -20.827,-47.25 -1.905,-2.25 2.25,1.90499 c 2.1144,1.79022 2.7052,2.59501 1.905,2.59501 -0.1898,0 -1.2023,-1.0125 -2.25,-2.25 z m -69.655,-19.41228 c 0.6875,-0.27741 1.8125,-0.27741 2.5,0 0.6875,0.27741 0.125,0.50438 -1.25,0.50438 -1.375,0 -1.9375,-0.22697 -1.25,-0.50438 z m 19,0 c 0.6875,-0.27741 1.8125,-0.27741 2.5,0 0.6875,0.27741 0.125,0.50438 -1.25,0.50438 -1.375,0 -1.9375,-0.22697 -1.25,-0.50438 z m 47.9461,-129.10195 c -44.3418,-0 -100.801,0.035 -172.7722,0.1017 l -326.34813,0.299 -9.1465,2.5983 c -35.22677,10.0126 -61.88996,36.86074 -71.13662,71.62954 l -2.60148,9.78256 v 329.71608 329.71924 l 2.5983,9.74121 c 10.19661,38.2453 40.0692,66.08964 78.36859,73.04798 v 0.01 c 7.42475,1.34566 60.76746,1.57778 336.33744,1.41205 l 327.5121,-0.19717 9.1465,-2.59831 c 35.585,-10.11433 61.0254,-35.53144 71.1207,-71.05393 l 2.6174,-9.20692 0.3021,-326.25274 c 0.2658,-287.80062 0.095,-327.44742 -1.4502,-336.40104 -7.1365,-41.34099 -39.4673,-73.66082 -80.8206,-80.79512 -6.717,-1.1609 -30.702,-1.5447 -163.7274,-1.552 z" />
    <path
       style="fill:none;fill-opacity:0.115523;stroke:#bababa;stroke-width:1.22881"
       d="m 85.380709,542.47094 c -22.018291,-3.911 -38.762529,-18.71468 -46.299113,-40.9333 l -2.853429,-8.4122 0.0133,-202.94373 C 36.256065,67.468622 35.727501,83.149669 43.725753,68.14341 50.826289,54.821442 62.785825,44.930328 78.838407,39.103555 l 7.882911,-2.861343 199.319102,0.0093 c 128.5417,0.006 202.15535,0.45156 207.30639,1.254799 24.28289,3.786613 45.19733,24.713059 49.08906,49.117274 0.84075,5.272146 1.27689,75.742425 1.28302,207.306395 l 0.01,199.3191 -2.86134,7.88291 c -7.51284,20.69767 -19.05123,32.23606 -39.7489,39.7489 l -7.88346,2.86134 -201.16233,-0.14453 C 181.43342,543.51819 88.422023,543.01116 85.380709,542.47094 Z M 422.95449,477.53969 c 13.55367,-1.1958 19.22634,-4.27707 24.55109,-13.33564 2.89945,-4.93259 3.44716,-7.2455 3.44716,-14.55678 0,-7.52962 -0.49748,-9.49784 -3.71893,-14.71329 -2.1987,-3.55968 -5.98995,-7.42493 -9.27459,-9.45567 -5.30337,-3.27883 -6.46799,-3.47074 -25.64448,-4.22569 l -20.08879,-0.79087 0.84405,-22.84071 c 0.46423,-12.56238 1.06688,-28.09387 1.33923,-34.51442 0.27234,-6.42055 0.821,-19.96822 1.21923,-30.10593 5.63094,-143.34525 5.90419,-147.7849 10.05565,-163.37399 2.96502,-11.13387 2.45178,-22.49904 -1.37338,-30.41237 -4.11066,-8.50397 -7.86532,-12.60277 -16.07078,-17.54384 -13.24356,-7.97486 -32.82579,-8.67349 -69.38466,-2.47544 -25.14518,4.26302 -35.8229,7.04799 -49.09821,12.8058 -22.24127,9.64657 -38.55525,20.86876 -60.00001,41.27331 -32.35872,30.78907 -41.9918,49.09676 -47.51298,90.29856 -1.0415,7.77225 -2.17983,19.10805 -2.52961,25.19068 -0.34978,6.08263 -0.90529,15.48305 -1.23447,20.88983 -2.18735,35.92755 -6.79575,124.98951 -6.99417,135.16949 -0.20479,10.5066 0.14619,13.02615 2.42089,17.37856 3.51504,6.7257 11.8427,13.73624 17.38368,14.63425 2.42446,0.39292 5.23755,0.8791 6.25132,1.08039 4.42119,0.87787 235.20844,0.52406 245.41276,-0.37623 z"
       id="path2037"
       transform="matrix(1.6283061,0,0,1.6283061,608.75598,-1086.227)" />
  </g>
  <path
     style="fill:#000000"
     id="path1953"
     d="" />
  <path
     style="fill:#000000"
     id="path1951"
     d="" />
</svg>
