<?xml version="1.0" encoding="UTF-8" standalone="no"?>
<svg
   xmlns:dc="http://purl.org/dc/elements/1.1/"
   xmlns:cc="http://creativecommons.org/ns#"
   xmlns:rdf="http://www.w3.org/1999/02/22-rdf-syntax-ns#"
   xmlns:svg="http://www.w3.org/2000/svg"
   xmlns="http://www.w3.org/2000/svg"
   xmlns:sodipodi="http://sodipodi.sourceforge.net/DTD/sodipodi-0.dtd"
   xmlns:inkscape="http://www.inkscape.org/namespaces/inkscape"
   enable-background="new 0 0 580 580"
   height="580"
   viewBox="0 0 580 580"
   width="580"
   version="1.1"
   id="svg857"
   sodipodi:docname="Atkritumu_urna_esosa.svg"
   inkscape:version="0.92.2 (5c3e80d, 2017-08-06)">
  <metadata
     id="metadata863">
    <rdf:RDF>
      <cc:Work
         rdf:about="">
        <dc:format>image/svg+xml</dc:format>
        <dc:type
           rdf:resource="http://purl.org/dc/dcmitype/StillImage" />
        <dc:title></dc:title>
      </cc:Work>
    </rdf:RDF>
  </metadata>
  <defs
     id="defs861" />
  <sodipodi:namedview
     pagecolor="#ffffff"
     bordercolor="#666666"
     borderopacity="1"
     objecttolerance="10"
     gridtolerance="10"
     guidetolerance="10"
     inkscape:pageopacity="0"
     inkscape:pageshadow="2"
     inkscape:window-width="1920"
     inkscape:window-height="1007"
     id="namedview859"
     showgrid="false"
     units="px"
     inkscape:zoom="0.57543862"
     inkscape:cx="142.49844"
     inkscape:cy="104.33702"
     inkscape:window-x="-9"
     inkscape:window-y="1071"
     inkscape:window-maximized="1"
     inkscape:current-layer="svg857"
     showguides="true"
     inkscape:guide-bbox="true"
     inkscape:object-nodes="false"
     inkscape:snap-others="false"
     inkscape:snap-grids="false">
    <sodipodi:guide
       position="287.84958,497.36229"
       orientation="0,1"
       id="guide974"
       inkscape:locked="false" />
    <sodipodi:guide
       position="416.6387,86.89024"
       orientation="0,1"
       id="guide976"
       inkscape:locked="false" />
  </sodipodi:namedview>
  <path
     id="path852"
     d="m 303.93681,35.728482 c -67.91799,0.0247 -140.42927,0.28576 -217.318674,0.35602 l -5.61721,1.59525 c -21.63402,6.14573 -38.00837,22.62431 -43.68712,43.96535 l -1.59831,6.00447 c 0,134.920558 0,269.841108 0,404.761668 l 1.59488,5.97878 c 6.2622,23.47493 24.60991,40.56729 48.13087,44.8383 v 0.006 c 146.771944,1.69523 223.457014,0.8559 407.692204,0.74456 l 5.61722,-1.59524 c 21.85402,-6.20818 37.47866,-21.80908 43.67854,-43.61275 l 1.60688,-5.65187 0.18501,-200.25241 c 0.16331,-176.65256 0.0584,-200.987648 -0.89079,-206.483368 -4.38275,-25.37506 -24.23671,-45.21421 -49.63325,-49.59325 -58.51758,-0.8743 -121.84227,-1.08593 -189.76025,-1.06122 z"
     style="fill:#ffffff;fill-opacity:1;stroke:#ffffff;stroke-width:71.43099213;stroke-miterlimit:4;stroke-dasharray:none;stroke-opacity:1"
     inkscape:connector-curvature="0"
     sodipodi:nodetypes="sccccccccccccsccs" />
  <path
     style="fill:#4da329;fill-opacity:1;stroke-width:20.35811424"
     d="M 393.14453 35.716797 C 365.91267 35.715305 331.23911 35.738584 287.03906 35.779297 L 86.617188 35.962891 L 81 37.558594 C 59.366 43.707672 42.9912 60.196086 37.3125 81.548828 L 35.714844 87.556641 L 35.714844 290.04688 L 35.714844 492.53906 L 37.310547 498.52148 C 43.572647 522.00926 61.918453 539.10945 85.439453 543.38281 L 85.439453 543.38867 C 89.999253 544.21509 122.75889 544.35764 291.99609 544.25586 L 493.13281 544.13477 L 498.75 542.53906 C 520.604 536.32749 536.22783 520.71795 542.42773 498.90234 L 544.03516 493.24805 L 544.2207 292.88477 C 544.3839 116.13629 544.27928 91.787798 543.33008 86.289062 C 538.94728 60.900107 519.09181 41.051372 493.69531 36.669922 C 489.57016 35.956964 474.84012 35.721272 393.14453 35.716797 z M 362.6875 85.662109 C 381.42598 85.662109 396.62109 100.85695 396.62109 119.59766 C 396.62109 138.33754 381.42598 153.53125 362.6875 153.53125 C 343.94737 153.53125 328.75586 138.33754 328.75586 119.59766 C 328.75586 100.85695 343.94737 85.662109 362.6875 85.662109 z M 338.17773 163.07617 L 398.51562 163.07617 C 420.02123 163.07617 440.35352 179.16443 440.35352 206.48438 L 440.35352 308.11328 C 440.35352 330.0176 410.08984 330.01721 410.08984 307.71484 L 410.08984 214.8125 L 403.39258 214.8125 L 403.37109 474.96289 C 403.37109 501.23247 364.81836 500.56839 364.81836 474.29883 L 364.8418 323.58398 L 357.42578 323.65625 L 357.40234 474.37109 C 357.40234 500.6415 319.29688 500.8768 319.29688 474.96289 L 319.08789 215.90039 L 295.83984 249.13672 C 292.49684 254.12604 286.68128 255.9082 281.90234 255.9082 L 220.82617 255.9082 C 201.1271 255.9082 199.93173 225.70898 221.22461 225.70898 L 274.2168 225.70898 L 304.75391 181.20508 C 313.47913 168.74008 323.86671 163.07617 338.17773 163.07617 z M 198.05469 267.50391 L 216.13086 285.57812 L 198.05469 303.65234 L 179.98047 285.57812 L 198.05469 267.50391 z M 214.91602 301.64062 L 232.99219 319.7168 L 214.91602 337.78906 L 196.84375 319.7168 L 214.91602 301.64062 z M 261.62891 322.83008 L 285.87109 322.83008 L 253.64844 494.15039 L 171.26367 494.15039 L 139.64648 322.89062 L 163.88672 322.89062 L 191.52344 470.28906 L 233.38867 470.28906 L 261.62891 322.83008 z M 194.70703 349.97461 L 219.52148 349.97461 L 219.52148 374.79102 L 194.70703 374.79102 L 194.70703 349.97461 z "
     id="path837" />
  <g
     id="g985"
     transform="matrix(1.362095,0,0,1.362137,-726.1789,-177.53313)" />
</svg>
