<?xml version="1.0" encoding="UTF-8" standalone="no"?>
<svg
   xmlns:dc="http://purl.org/dc/elements/1.1/"
   xmlns:cc="http://creativecommons.org/ns#"
   xmlns:rdf="http://www.w3.org/1999/02/22-rdf-syntax-ns#"
   xmlns:svg="http://www.w3.org/2000/svg"
   xmlns="http://www.w3.org/2000/svg"
   xmlns:sodipodi="http://sodipodi.sourceforge.net/DTD/sodipodi-0.dtd"
   xmlns:inkscape="http://www.inkscape.org/namespaces/inkscape"
   enable-background="new 0 0 580 580"
   height="580"
   viewBox="0 0 580 580"
   width="580"
   version="1.1"
   id="svg857"
   sodipodi:docname="gerbtuve_esosa.svg"
   inkscape:version="0.92.2 (5c3e80d, 2017-08-06)">
  <metadata
     id="metadata863">
    <rdf:RDF>
      <cc:Work
         rdf:about="">
        <dc:format>image/svg+xml</dc:format>
        <dc:type
           rdf:resource="http://purl.org/dc/dcmitype/StillImage" />
        <dc:title />
      </cc:Work>
    </rdf:RDF>
  </metadata>
  <defs
     id="defs861">
    <clipPath
       clipPathUnits="userSpaceOnUse"
       id="clipPath841">
      <rect
         style="opacity:1;fill:#4da329;fill-opacity:1;stroke:#000000;stroke-opacity:1"
         id="rect843"
         width="396.21948"
         height="608.23169"
         x="1285.9756"
         y="222.01221" />
    </clipPath>
  </defs>
  <sodipodi:namedview
     pagecolor="#ffffff"
     bordercolor="#666666"
     borderopacity="1"
     objecttolerance="10"
     gridtolerance="10"
     guidetolerance="10"
     inkscape:pageopacity="0"
     inkscape:pageshadow="2"
     inkscape:window-width="1920"
     inkscape:window-height="1007"
     id="namedview859"
     showgrid="false"
     units="px"
     inkscape:zoom="0.57543863"
     inkscape:cx="7.1415814"
     inkscape:cy="203.1633"
     inkscape:window-x="-9"
     inkscape:window-y="-9"
     inkscape:window-maximized="1"
     inkscape:current-layer="svg857" />
  <path
     id="path852"
     d="m 303.93682,35.728482 c -67.91799,0.0247 -140.42927,0.28576 -217.318684,0.35602 l -5.61721,1.59526 c -21.63401,6.14572 -38.00837,22.62431 -43.68712,43.96535 l -1.59831,6.00447 c 0,134.920548 0,269.841098 0,404.761658 l 1.59489,5.97878 c 6.2622,23.47493 24.60991,40.56729 48.13086,44.8383 v 0.006 c 146.771954,1.69523 223.457024,0.8559 407.692234,0.74456 l 5.6172,-1.59524 c 21.854,-6.20818 37.4787,-21.80908 43.6785,-43.61275 l 1.6069,-5.65187 0.185,-200.25241 c 0.1633,-176.65256 0.058,-200.987638 -0.8908,-206.483358 -4.3827,-25.37506 -24.2367,-45.21422 -49.6332,-49.59325 -58.5176,-0.87431 -121.8423,-1.08594 -189.76026,-1.06123 z"
     style="fill:#ffffff;fill-opacity:1;stroke:#ffffff;stroke-width:71.43099213;stroke-miterlimit:4;stroke-dasharray:none;stroke-opacity:1"
     inkscape:connector-curvature="0"
     sodipodi:nodetypes="sccccccccccccsccs" />
  <g
     id="g816"
     transform="matrix(0.87710026,0,0,0.87710026,35.715,35.567137)">
    <path
       sodipodi:nodetypes="scccccccccccccccsccsccscscccscccccccccccccccccscscsscscscccccacccsssccccccscsccsccccccccccccccccccscccccccscccccscssc"
       inkscape:connector-curvature="0"
       id="path837"
       d="M 407.51172,0 C 376.4641,-0.00170479 336.93443,0.0258374 286.54102,0.07226562 L 58.035156,0.28125 51.630859,2.1015625 C 26.965472,9.114313 8.2967273,27.917698 1.8222656,52.269531 L 0,59.121094 v 230.931636 230.9336 l 1.8183594,6.82226 c 7.139662,26.78676 28.0582686,46.2905 54.8749996,51.16407 v 0.006 c 5.198824,0.94249 42.547219,1.10435 235.498051,0.98828 l 229.32031,-0.13868 6.4043,-1.82031 c 24.91622,-7.08402 42.73021,-24.88589 49.79882,-49.76562 l 1.83204,-6.44922 0.21093,-228.50391 C 579.94399,91.715372 579.82443,63.94684 578.74219,57.675781 573.74535,28.720821 551.10942,6.0827746 522.1543,1.0859375 517.45114,0.27286327 500.65459,0.00511436 407.51172,0 Z M 289.34766,42.412109 c 14.94549,-0.165293 29.81739,7.370624 38.37695,20.716797 3.78577,5.902933 7.24023,17.260628 7.24023,23.800782 0,7.453751 -4.61636,20.751262 -9.17187,26.419922 -2.22988,2.77468 -4.05274,5.64765 -4.05274,6.38477 0,0.73711 2.23115,1.70331 4.95899,2.14648 14.71667,2.39097 24.44836,8.85142 30.53516,20.27148 l 4.33789,8.14063 h 24.85546 c 23.63962,0 25.07554,0.14667 29.34961,3.00195 9.67206,6.46136 9.11885,-1.47689 9.1211,130.82227 0,80.59657 -0.44846,119.81001 -1.4043,122.33984 -1.98374,5.25044 -7.56858,10.72526 -11.91406,11.67969 -2.02978,0.44582 -4.31998,1.56844 -5.08985,2.49609 -0.92515,1.11469 -1.51625,21.15585 -1.74414,59.10157 l -0.3457,57.41406 h -15.20898 -15.20899 l -0.3457,-57.41406 c -0.24257,-40.38304 -0.78913,-57.94988 -1.84375,-59.22071 -1.16573,-1.40469 -5.65224,-1.72578 -20.15625,-1.4414 l -18.65625,0.36523 -0.34766,16.90775 c -0.22816,27.98944 0.12157,43.3964 1.01367,44.47071 0.75029,0.90408 4.19584,2.01946 7.65625,2.47851 12.6082,1.67253 19.81491,10.35088 16.29102,19.61914 -2.44931,6.44221 -8.12012,8.19978 -26.5957,8.24024 -18.35668,0.0402 -24.89099,-1.48997 -29.07617,-6.81055 -2.57097,-3.26848 -3.28518,7.25093 -3.28518,-43.34261 0,-39.03917 0.21234,-39.45634 -0.96873,-40.63741 -2.05768,-2.05769 -13.28413,-2.05769 -15.3418,0 -1.18106,1.18107 -1.21444,0.60759 -1.21444,39.64676 0,50.59354 -0.4668,41.06478 -3.03751,44.33326 -4.20648,5.3477 -10.73174,6.88881 -29.08008,6.86914 -19.21743,-0.0206 -24.7532,-2.01134 -26.95703,-9.69531 -2.54015,-8.85732 7.2707,-18.72266 18.61914,-18.72266 2.22737,0 4.72612,-0.81445 5.55273,-1.81055 1.07063,-1.28989 1.40295,-14.13742 1.1543,-44.63867 l -0.34961,-16.90775 -18.65625,-0.36523 c -14.50399,-0.28438 -18.98859,0.0368 -20.1543,1.4414 -1.05464,1.27083 -1.47893,39.47429 -1.8457,59.22071 -0.35541,19.13506 -0.34375,57.41406 -0.34375,57.41406 l -14.61914,0.37109 c -8.03972,0.20435 -15.03157,-0.0433 -15.53906,-0.55078 -0.50734,-0.50743 -0.92383,-26.59457 -0.92383,-57.9707 0,-59.20994 -0.0909,-60.22071 -5.45312,-60.22071 -3.36386,0 -10.51077,-6.51617 -12.58008,-11.46875 -1.47826,-3.53799 -1.80445,-25.76129 -1.80274,-123.0625 9.8e-4,-110.43646 0.1638,-119.06156 2.31446,-123.27929 3.02911,-5.9404 4.58543,-8.80051 13.04296,-9.95313 4.8396,-0.65955 12.1798,-0.7437 22.74024,-0.7207 l 26.1543,0.0566 2.73437,-6.7832 c 5.10544,-10.76304 15.0698,-18.48433 26.31641,-20.39258 11.58253,-1.96525 11.80899,-2.35034 5.80273,-9.82422 -4.55538,-5.66866 -9.17187,-18.96617 -9.17187,-26.419922 0,-2.712862 0.94321,-8.107555 2.0957,-11.988282 3.99157,-13.441048 12.07927,-22.713101 25.01758,-28.683594 5.49741,-2.53686 11.35684,-3.781022 17.20508,-3.845703 z m 42.30023,133.481391 -0.35938,25.08789 c -0.19852,13.79862 -0.0578,25.87906 0.3125,26.8457 0.48526,1.26441 2.99774,1.64689 8.95703,1.36328 l 8.28321,-0.39453 V 202.34467 175.8935 h -8.59571 z m 25.1289,0 -0.35937,25.08789 c -0.19852,13.79862 -0.0688,25.85152 0.28906,26.7832 0.9114,2.37519 14.48033,2.26735 16.4707,-0.13086 1.04894,-1.26397 1.40401,-9.49435 1.1543,-26.7832 l -0.35937,-24.95703 h -8.59766 z m 25.13086,0 -0.36133,25.08789 c -0.19853,13.79862 -0.0583,25.88158 0.31446,26.85156 0.47428,1.23585 2.76048,1.64377 7.63672,1.36328 l 6.95703,-0.40039 V 202.34467 175.8935 h -7.27344 z M 216.87891,303.71094 c 18.13819,0 23.10354,1.77623 27.23437,9.73633 3.39296,6.538 1.30167,14.50746 -4.11896,19.61857 l -4.16063,2.61581 -3.82306,0.90994 -14.29188,0.13083 c -13.61339,0.12462 -19.24866,-0.55563 -21.93945,-2.01563 -7.51877,-4.07963 -10.15012,-16.84231 -4.85938,-23.56836 4.93324,-6.27169 8.96867,-7.42773 25.95899,-7.42773 z"
       style="fill:#4da329;fill-opacity:1;stroke-width:23.21410942" />
  </g>
  <path
     style="fill:#000000"
     d=""
     id="path877"
     inkscape:connector-curvature="0" />
</svg>
