<?xml version="1.0" encoding="UTF-8" standalone="no"?>
<svg
   xmlns:dc="http://purl.org/dc/elements/1.1/"
   xmlns:cc="http://creativecommons.org/ns#"
   xmlns:rdf="http://www.w3.org/1999/02/22-rdf-syntax-ns#"
   xmlns:svg="http://www.w3.org/2000/svg"
   xmlns="http://www.w3.org/2000/svg"
   xmlns:sodipodi="http://sodipodi.sourceforge.net/DTD/sodipodi-0.dtd"
   xmlns:inkscape="http://www.inkscape.org/namespaces/inkscape"
   enable-background="new 0 0 580 580"
   height="580"
   viewBox="0 0 580 580"
   width="580"
   version="1.1"
   id="svg857"
   sodipodi:docname="info_zime_esosa.svg"
   inkscape:version="0.92.2 (5c3e80d, 2017-08-06)">
  <metadata
     id="metadata863">
    <rdf:RDF>
      <cc:Work
         rdf:about="">
        <dc:format>image/svg+xml</dc:format>
        <dc:type
           rdf:resource="http://purl.org/dc/dcmitype/StillImage" />
        <dc:title />
      </cc:Work>
    </rdf:RDF>
  </metadata>
  <defs
     id="defs861">
    <clipPath
       clipPathUnits="userSpaceOnUse"
       id="clipPath841">
      <rect
         style="opacity:1;fill:#4da329;fill-opacity:1;stroke:#000000;stroke-opacity:1"
         id="rect843"
         width="396.21948"
         height="608.23169"
         x="1285.9756"
         y="222.01221" />
    </clipPath>
    <clipPath
       id="clipPath841-9"
       clipPathUnits="userSpaceOnUse">
      <rect
         y="222.01221"
         x="1285.9756"
         height="608.23169"
         width="396.21948"
         id="rect843-2"
         style="opacity:1;fill:#4da329;fill-opacity:1;stroke:#000000;stroke-opacity:1" />
    </clipPath>
  </defs>
  <sodipodi:namedview
     pagecolor="#ffffff"
     bordercolor="#666666"
     borderopacity="1"
     objecttolerance="10"
     gridtolerance="10"
     guidetolerance="10"
     inkscape:pageopacity="0"
     inkscape:pageshadow="2"
     inkscape:window-width="1920"
     inkscape:window-height="1007"
     id="namedview859"
     showgrid="false"
     units="px"
     inkscape:zoom="0.8137931"
     inkscape:cx="389.47806"
     inkscape:cy="342.24947"
     inkscape:window-x="-9"
     inkscape:window-y="-9"
     inkscape:window-maximized="1"
     inkscape:current-layer="svg857"
     inkscape:snap-bbox="true"
     inkscape:snap-smooth-nodes="true"
     inkscape:snap-intersection-paths="true" />
  <path
     id="path852"
     d="m 303.93681,35.728482 c -67.91799,0.0247 -140.42927,0.28577 -217.318681,0.35602 l -5.6172,1.59526 C 59.366912,43.825483 42.992555,60.304071 37.313805,81.645111 l -1.598309,6.00447 c 0,134.920559 0,269.841099 0,404.761659 l 1.594882,5.97878 c 6.262199,23.47493 24.609909,40.56729 48.130861,44.8383 v 0.006 c 146.771951,1.69523 223.457021,0.8559 407.692211,0.74456 l 5.61722,-1.59524 c 21.85402,-6.20818 37.47866,-21.80908 43.67854,-43.61275 l 1.60688,-5.65187 0.18501,-200.25241 c 0.16331,-176.65255 0.0584,-200.987639 -0.89079,-206.483359 -4.38275,-25.37506 -24.23671,-45.214212 -49.63325,-49.593249 -58.51758,-0.8743 -121.84227,-1.08594 -189.76025,-1.06123 z"
     style="fill:#ffffff;fill-opacity:1;stroke:#ffffff;stroke-width:71.43099213;stroke-miterlimit:4;stroke-dasharray:none;stroke-opacity:1"
     inkscape:connector-curvature="0"
     sodipodi:nodetypes="sccccccccccccsccs" />
  <path
     style="fill:#000000"
     d=""
     id="path877"
     inkscape:connector-curvature="0" />
  <g
     id="g1613"
     transform="translate(766.40892,-941.10858)">
    <g
       id="g838"
       transform="translate(-2067.0288,669.83431)">
      <g
         transform="translate(-766.40892,941.10858)"
         id="g830">
        <path
           style="fill:#4da329;fill-opacity:1;stroke-width:20.36109924"
           d="m 2460.1724,-634.26689 c -27.2319,-0.002 -61.9034,0.0226 -106.1034,0.0634 l -200.4225,0.18331 -5.6172,1.59659 c -21.6341,6.15089 -38.0085,22.64334 -43.6872,44.00234 l -1.5983,6.0095 v 202.55019 202.5519 l 1.5949,5.9838 c 6.2622,23.49468 24.6099,40.60141 48.1309,44.87602 v 0.005 c 4.5599,0.82666 37.3181,0.96863 206.5553,0.86682 l 201.1369,-0.12163 5.6172,-1.5966 c 21.8541,-6.21339 37.4787,-21.82742 43.6786,-43.64943 l 1.6069,-5.65661 0.185,-200.42083 c 0.1633,-176.80044 0.059,-201.1561 -0.8908,-206.65645 -4.3827,-25.3964 -24.2367,-45.25224 -49.6333,-49.63496 -4.1251,-0.71315 -18.8574,-0.94799 -100.553,-0.95248 z m -195.0211,53.40203 h 183.7541 c 10.9521,0 19.8623,8.90944 19.8616,19.86153 v 203.6517 c 0,10.9521 -8.9095,19.86323 -19.8616,19.86323 h -81.2928 v 136.93898 h 53.6967 c 5.9642,0 10.7993,4.83511 10.7993,10.7993 0,5.96418 -4.8351,10.79929 -10.7993,10.79929 h -130.3367 c -5.9642,0 -10.7993,-4.83511 -10.7993,-10.79929 0,-5.96419 4.8351,-10.7993 10.7993,-10.7993 h 55.9048 V -337.4884 h -81.7261 c -10.9522,0 -19.8616,-8.91113 -19.8616,-19.86323 v -203.6517 c 0,-10.95209 8.9094,-19.86153 19.8616,-19.86153 z"
           id="path837"
           inkscape:connector-curvature="0" />
      </g>
      <g
         style="fill:#4da329;fill-opacity:1"
         inkscape:label="Layer 1"
         id="layer1"
         transform="matrix(2.4343389,0,0,2.4343389,1407.5159,-55.682932)">
        <path
           sodipodi:nodetypes="scsccscscsccccccccscscccccsscsccccccccccc"
           style="fill:#4da329;fill-opacity:1;stroke-width:0.32145014"
           d="m 77.137887,181.38099 c 2.297468,0 4.205779,0.71028 5.724578,2.13149 1.518609,1.42122 2.277772,3.02805 2.277772,4.81925 0,1.32403 -0.30189,2.64781 -0.905332,3.97166 -0.603455,1.32404 -1.557372,2.38489 -2.861661,3.1831 -1.304481,0.79823 -2.638229,1.19791 -4.001175,1.19791 -1.869023,0 -3.592507,-0.79856 -5.169571,-2.39519 -1.577076,-1.59662 -2.365674,-3.5043 -2.365674,-5.72394 0,-2.10269 0.681278,-3.82599 2.044224,-5.16956 1.362954,-1.34321 3.115038,-2.01472 5.256839,-2.01472 z m 2.395179,24.6487 h 3.913281 c 0.155912,4.8284 0.233551,11.09783 0.233551,18.80798 l -0.408716,23.83125 c 0,1.63573 0.07771,3.11537 0.233552,4.4394 1.207303,0.42825 3.174034,0.85675 5.899742,1.28518 1.051438,0.15566 1.888324,0.34997 2.511329,0.58325 l -0.05839,3.21263 c -1.051255,0.0392 -1.829903,0.059 -2.336164,0.059 -0.584101,0 -1.480031,-0.0396 -2.687125,-0.11736 -3.971726,-0.19477 -9.286789,-0.29195 -15.945683,-0.29195 -1.908134,0 -3.758215,0.0685 -5.549413,0.20468 -1.791194,0.13649 -3.017805,0.20467 -3.679723,0.20467 l -0.11678,-3.79713 6.6004,-0.87582 c 0.973622,-0.2726 1.645373,-0.67146 2.015342,-1.19728 0.36997,-0.52582 0.555002,-1.70396 0.555002,-3.53408 v -0.64227 c 0,-0.46734 0.02946,-1.31437 0.0879,-2.54083 0.05844,-1.22665 0.08727,-2.30762 0.08727,-3.24212 0,-0.73974 -0.05829,-2.16091 -0.175168,-4.26362 l 0.05839,-2.92067 -0.05839,-2.74551 0.11678,-9.52045 c 0,-1.20711 -0.116658,-2.45299 -0.350334,-3.73812 -0.428426,-0.58409 -1.206891,-1.09049 -2.336159,-1.51872 -1.129278,-0.42825 -3.096009,-0.73946 -5.899739,-0.93422 v -3.27162 c 4.010833,-0.23368 7.534866,-1.07056 10.572068,-2.51134 2.06379,-0.93451 4.302784,-2.58961 6.717177,-4.96489 z"
           id="path1513"
           inkscape:connector-curvature="0" />
      </g>
    </g>
  </g>
</svg>
