<?xml version="1.0" encoding="UTF-8" standalone="no"?>
<!-- Created with Inkscape (http://www.inkscape.org/) -->

<svg
   xmlns:dc="http://purl.org/dc/elements/1.1/"
   xmlns:cc="http://creativecommons.org/ns#"
   xmlns:rdf="http://www.w3.org/1999/02/22-rdf-syntax-ns#"
   xmlns:svg="http://www.w3.org/2000/svg"
   xmlns="http://www.w3.org/2000/svg"
   xmlns:sodipodi="http://sodipodi.sourceforge.net/DTD/sodipodi-0.dtd"
   xmlns:inkscape="http://www.inkscape.org/namespaces/inkscape"
   width="580"
   height="580"
   viewBox="0 0 153.45833 153.45834"
   version="1.1"
   id="svg8"
   inkscape:version="0.92.2 (5c3e80d, 2017-08-06)"
   sodipodi:docname="info_stends_esoss.svg">
  <defs
     id="defs2" />
  <sodipodi:namedview
     id="base"
     pagecolor="#ffffff"
     bordercolor="#666666"
     borderopacity="1.0"
     inkscape:pageopacity="0.0"
     inkscape:pageshadow="2"
     inkscape:zoom="1.060799"
     inkscape:cx="261.12785"
     inkscape:cy="283.43411"
     inkscape:document-units="mm"
     inkscape:current-layer="layer1"
     showgrid="false"
     units="px"
     inkscape:window-width="1920"
     inkscape:window-height="1007"
     inkscape:window-x="-9"
     inkscape:window-y="1071"
     inkscape:window-maximized="1" />
  <metadata
     id="metadata5">
    <rdf:RDF>
      <cc:Work
         rdf:about="">
        <dc:format>image/svg+xml</dc:format>
        <dc:type
           rdf:resource="http://purl.org/dc/dcmitype/StillImage" />
        <dc:title></dc:title>
      </cc:Work>
    </rdf:RDF>
  </metadata>
  <g
     inkscape:label="Layer 1"
     inkscape:groupmode="layer"
     id="layer1"
     transform="translate(0,-143.54165)">
    <path
       id="path852"
       d="m 80.416614,152.99439 c -17.969968,0.007 -37.155239,0.0756 -57.498899,0.0942 l -1.48622,0.42208 c -5.724,1.62605 -10.05638,5.98601 -11.5588798,11.63249 l -0.42289,1.58869 c 0,35.69773 0,71.39547 0,107.0932 l 0.42198,1.58189 c 1.6568698,6.21107 6.5113698,10.73342 12.7346298,11.86346 v 0.002 c 38.833405,0.44853 59.122996,0.22646 107.868555,0.197 l 1.48622,-0.42208 c 5.78221,-1.64258 9.91623,-5.77032 11.55662,-11.5392 l 0.42515,-1.49539 0.0489,-52.98345 c 0.0432,-46.73934 0.0155,-53.178 -0.23569,-54.63207 -1.1596,-6.71382 -6.41263,-11.96293 -13.13213,-13.12155 -15.48277,-0.23133 -32.23743,-0.28732 -50.207396,-0.28078 z"
       style="fill:#ffffff;fill-opacity:1;stroke:#ffffff;stroke-width:18.8994503;stroke-miterlimit:4;stroke-dasharray:none;stroke-opacity:1"
       inkscape:connector-curvature="0"
       sodipodi:nodetypes="sccccccccccccsccs" />
    <path
       style="fill:#4da329;fill-opacity:1;stroke-width:20.35811424"
       d="M 393.14453 35.714844 C 365.91267 35.713364 331.23912 35.736619 287.03906 35.777344 L 86.617188 35.960938 L 81 37.556641 C 59.366022 43.705705 42.991202 60.194132 37.3125 81.546875 L 35.714844 87.554688 L 35.714844 290.04492 L 35.714844 492.53711 L 37.310547 498.51953 C 43.572619 522.00733 61.91847 539.10945 85.439453 543.38281 L 85.441406 543.38672 C 90.001217 544.21304 122.7589 544.35558 291.99609 544.25391 L 493.13281 544.13281 L 498.75 542.53711 C 520.60402 536.32557 536.22979 520.71601 542.42969 498.90039 L 544.03516 493.24609 L 544.2207 292.88281 C 544.3839 116.1343 544.27927 91.785831 543.33008 86.287109 C 538.9473 60.898172 519.09181 41.049424 493.69531 36.667969 C 489.57017 35.954914 474.84012 35.719282 393.14453 35.714844 z M 92.849609 136.20508 L 487.15039 136.20508 C 492.25585 136.20508 496.39362 140.28818 496.39453 145.32617 L 496.39453 388.85742 C 496.39453 393.89538 492.25585 397.98047 487.15039 397.98047 L 441.27539 397.98047 L 465.93164 456.88477 C 468.85458 463.86933 465.48628 471.86964 458.4082 474.75391 C 451.33191 477.63731 443.22459 474.31656 440.30078 467.33203 L 411.27148 397.98047 L 168.73047 397.98047 L 139.70117 467.33203 C 137.49253 472.60825 132.32676 475.79492 126.88086 475.79492 C 125.11716 475.79492 123.32299 475.45966 121.5918 474.75391 C 114.51371 471.86964 111.14452 463.86933 114.06836 456.88477 L 138.72461 397.98047 L 92.849609 397.98047 C 87.745036 397.98047 83.605469 393.89538 83.605469 388.85742 L 83.605469 145.32617 C 83.605469 140.28904 87.745036 136.20508 92.849609 136.20508 z M 291.14453 159.55859 C 285.14291 159.55859 280.23327 161.4148 276.41406 165.12891 C 272.59491 168.84403 270.6875 173.60967 270.6875 179.42383 C 270.6875 185.56137 272.89724 190.83712 277.31641 195.25195 C 281.73557 199.66678 286.5635 201.875 291.80078 201.875 C 295.61993 201.875 299.35834 200.76967 303.01367 198.5625 C 306.66848 196.35537 309.3403 193.42088 311.03125 189.75977 C 312.72217 186.09918 313.56836 182.43842 313.56836 178.77734 C 313.56836 173.82446 311.4409 169.38296 307.18555 165.45312 C 302.92966 161.52333 297.58236 159.55859 291.14453 159.55859 z M 297.85742 227.71484 C 291.09197 234.28276 284.81818 238.85933 279.03516 241.44336 C 270.52447 245.42728 260.64906 247.74057 249.41016 248.38672 L 249.41016 257.43359 C 257.2666 257.97214 262.777 258.83341 265.94141 260.01758 C 269.10575 261.20167 271.28776 262.60173 272.48828 264.2168 C 273.14307 267.77031 273.4707 271.21496 273.4707 274.55273 L 273.14258 300.87891 L 273.30664 308.46875 L 273.14258 316.54492 C 273.47008 322.35912 273.63281 326.28854 273.63281 328.33398 C 273.63281 330.91801 273.55233 333.907 273.38867 337.29883 C 273.22502 340.69012 273.14258 343.03391 273.14258 344.32617 L 273.14258 346.10156 C 273.14258 351.16205 272.6246 354.4191 271.58789 355.87305 C 270.55119 357.32699 268.6677 358.42984 265.93945 359.18359 L 247.44531 361.60547 L 247.77148 372.10547 C 249.62628 372.10547 253.06479 371.91664 258.08398 371.53906 C 263.10315 371.16247 268.28597 370.97266 273.63281 370.97266 C 292.29195 370.97266 307.1871 371.24267 318.31641 371.78125 C 321.69887 371.99631 324.20897 372.10547 325.8457 372.10547 C 327.26431 372.10547 329.44489 372.04988 332.39062 371.94141 L 332.55469 363.05859 C 330.80895 362.41354 328.46386 361.87573 325.51758 361.44531 C 317.87976 360.26066 312.36935 359.07674 308.98633 357.89258 C 308.54963 354.2315 308.33203 350.14019 308.33203 345.61719 L 309.47656 279.7207 C 309.47656 258.40133 309.25918 241.06587 308.82227 227.71484 L 297.85742 227.71484 z "
       transform="matrix(0.26458333,0,0,0.26458333,0,143.54165)"
       id="path837" />
    <g
       transform="matrix(0.74139925,0,0,0.73160111,-3.4977689,56.500511)"
       id="g843" />
  </g>
</svg>
