<?xml version="1.0" encoding="UTF-8" standalone="no"?>
<svg
   xmlns:dc="http://purl.org/dc/elements/1.1/"
   xmlns:cc="http://creativecommons.org/ns#"
   xmlns:rdf="http://www.w3.org/1999/02/22-rdf-syntax-ns#"
   xmlns:svg="http://www.w3.org/2000/svg"
   xmlns="http://www.w3.org/2000/svg"
   xmlns:sodipodi="http://sodipodi.sourceforge.net/DTD/sodipodi-0.dtd"
   xmlns:inkscape="http://www.inkscape.org/namespaces/inkscape"
   enable-background="new 0 0 580 580"
   height="580"
   viewBox="0 0 580 580"
   width="580"
   version="1.1"
   id="svg857"
   sodipodi:docname="kapnes_esoss.svg"
   inkscape:version="0.92.2 (5c3e80d, 2017-08-06)">
  <metadata
     id="metadata863">
    <rdf:RDF>
      <cc:Work
         rdf:about="">
        <dc:format>image/svg+xml</dc:format>
        <dc:type
           rdf:resource="http://purl.org/dc/dcmitype/StillImage" />
        <dc:title></dc:title>
      </cc:Work>
    </rdf:RDF>
  </metadata>
  <defs
     id="defs861" />
  <sodipodi:namedview
     pagecolor="#ffffff"
     bordercolor="#666666"
     borderopacity="1"
     objecttolerance="10"
     gridtolerance="10"
     guidetolerance="10"
     inkscape:pageopacity="0"
     inkscape:pageshadow="2"
     inkscape:window-width="1920"
     inkscape:window-height="1007"
     id="namedview859"
     showgrid="false"
     units="px"
     inkscape:zoom="0.8137931"
     inkscape:cx="332.52529"
     inkscape:cy="314.99006"
     inkscape:window-x="-9"
     inkscape:window-y="1071"
     inkscape:window-maximized="1"
     inkscape:current-layer="svg857"
     showguides="true"
     inkscape:guide-bbox="true"
     inkscape:object-nodes="false"
     inkscape:snap-others="false"
     inkscape:snap-grids="false">
    <sodipodi:guide
       position="287.84958,497.36229"
       orientation="0,1"
       id="guide974"
       inkscape:locked="false" />
    <sodipodi:guide
       position="416.6387,86.89024"
       orientation="0,1"
       id="guide976"
       inkscape:locked="false" />
  </sodipodi:namedview>
  <path
     id="path852"
     d="m 303.93681,35.728482 c -67.91799,0.0247 -140.42927,0.28576 -217.318674,0.35602 l -5.61721,1.59525 c -21.63402,6.14573 -38.00837,22.62431 -43.68712,43.96535 l -1.59831,6.00447 c 0,134.920558 0,269.841108 0,404.761668 l 1.59488,5.97878 c 6.2622,23.47493 24.60991,40.56729 48.13087,44.8383 v 0.006 c 146.771944,1.69523 223.457014,0.8559 407.692204,0.74456 l 5.61722,-1.59524 c 21.85402,-6.20818 37.47866,-21.80908 43.67854,-43.61275 l 1.60688,-5.65187 0.18501,-200.25241 c 0.16331,-176.65256 0.0584,-200.987648 -0.89079,-206.483368 -4.38275,-25.37506 -24.23671,-45.21421 -49.63325,-49.59325 -58.51758,-0.8743 -121.84227,-1.08593 -189.76025,-1.06122 z"
     style="fill:#ffffff;fill-opacity:1;stroke:#ffffff;stroke-width:71.43099213;stroke-miterlimit:4;stroke-dasharray:none;stroke-opacity:1"
     inkscape:connector-curvature="0"
     sodipodi:nodetypes="sccccccccccccsccs" />
  <g
     id="g985"
     transform="matrix(1.362095,0,0,1.362137,-726.1789,-177.53313)" />
  <g
     id="g1188"
     transform="matrix(0.82816346,0,0,0.82816346,50.603203,52.470297)" />
  <g
     id="g1940"
     transform="matrix(0.81738401,0,0,0.81738401,43.203568,43.34334)" />
  <g
     id="g2075"
     transform="matrix(0.82616049,0,0,0.82616049,75.248668,35.732714)" />
  <path
     style="fill:#4da329;fill-opacity:1;stroke-width:20.35811424"
     d="M 393.14453 35.716797 C 365.91267 35.715297 331.23911 35.738587 287.03906 35.779297 L 86.617188 35.962891 L 81 37.558594 C 59.366 43.707672 42.9912 60.196086 37.3125 81.548828 L 35.714844 87.556641 L 35.714844 290.04688 L 35.714844 492.53906 L 37.310547 498.52148 C 43.572647 522.00926 61.918453 539.10945 85.439453 543.38281 L 85.439453 543.38867 C 89.999253 544.21509 122.75889 544.35764 291.99609 544.25586 L 493.13281 544.13477 L 498.75 542.53906 C 520.604 536.32749 536.22783 520.71795 542.42773 498.90234 L 544.03516 493.24805 L 544.2207 292.88477 C 544.3839 116.13629 544.2793 91.787798 543.33008 86.289062 C 538.94728 60.900109 519.09181 41.051372 493.69531 36.669922 C 489.57016 35.956964 474.84012 35.721272 393.14453 35.716797 z M 246.22852 85.136719 C 261.10485 85.590621 275.07106 96.552998 275.54492 113.26953 C 276.12739 133.822 264.41238 145.42773 243.08398 145.42773 C 233.55897 145.42773 230.00816 144.06673 224.0957 138.1543 C 211.05104 125.10965 210.97207 106.15137 223.91016 93.755859 C 230.39421 87.543743 238.43615 84.89896 246.22852 85.136719 z M 223.77539 151.83789 C 226.51895 151.79698 229.27933 152.18428 232.35352 152.875 C 243.00057 155.26726 252.41638 163.54897 279.02148 193.91406 C 285.04924 200.79372 290.38597 203.84314 300.54688 206.21875 C 324.8508 211.90094 330.51562 215.16629 330.51562 223.48828 C 330.51562 236.6652 325.75534 238.05073 298.27539 232.875 C 276.3192 228.73965 272.8592 227.30069 262.97461 218.18945 L 252.01562 208.08789 L 252.01562 232.06641 L 252.01562 256.04492 L 273.71289 265.71289 C 306.7576 280.43707 307.751 281.53808 307.5957 303.24414 C 307.36914 334.93934 304.12841 355.86528 298.84766 359.72656 C 291.9691 364.75638 283.19639 363.99519 277.0332 357.83203 C 272.03483 352.83365 271.78373 350.77909 273.38281 328.07812 L 275.09961 303.69336 L 259.31836 296.74805 C 250.63871 292.92829 243.2812 290.08007 242.9668 290.41797 C 242.6524 290.75588 235.87539 317.66217 227.9082 350.21094 C 213.08156 410.78265 209.62842 418.91016 198.72266 418.91016 C 195.87383 418.91016 190.74666 416.11386 187.32812 412.69531 C 183.90947 409.27677 181.13032 405.00345 181.15234 403.19922 C 181.17514 401.39498 187.8788 372.39527 196.05078 338.75586 C 208.60853 287.06231 210.58062 275.88855 208.7832 266.58594 C 207.61357 260.53225 206.60555 241.62163 206.54492 224.56055 C 206.48422 207.49948 205.69805 193.53906 204.79688 193.53906 C 203.89583 193.53906 198.19929 197.60443 192.13672 202.57227 C 181.51891 211.27276 181.10814 212.13399 181.00195 225.99609 C 180.85576 245.0775 177.42814 262.0125 173.16602 264.71289 C 166.75704 268.77347 156.09937 267.22219 153.20117 261.80664 C 150.05629 255.9304 152.11828 212.58803 156.17383 199.31445 C 158.032 193.23258 164.46168 186.90781 181.48633 174.41211 C 204.39289 157.59912 213.97695 151.98399 223.77539 151.83789 z M 469.79102 264.30469 L 469.79102 274.50195 L 469.79102 284.70117 L 444.4668 284.70117 L 419.14453 284.70117 L 419.14453 311.28906 L 419.14453 337.87891 L 383.69336 337.87891 L 348.24219 337.87891 L 348.24219 363.13086 L 348.24219 388.38477 L 312.15625 389.08789 L 276.07227 389.78906 L 275.35156 415.67578 L 274.63086 441.5625 L 238.63477 442.26562 L 202.63672 442.9668 L 201.91602 468.92188 L 201.19336 494.87891 L 155.70117 494.87891 L 110.20898 494.87891 L 110.20898 484.75 L 110.20898 474.62109 L 145.57227 474.62109 L 180.93555 474.62109 L 181.6582 448.66406 L 182.37891 422.70898 L 217.19727 422.00391 L 252.01562 421.30078 L 252.01562 396.04883 L 252.01562 370.79688 L 288.73438 370.79688 L 325.45117 370.79688 L 325.45117 344.20898 L 325.45117 317.62109 L 360.81445 317.62109 L 396.17773 317.62109 L 396.89844 291.66406 L 397.62109 265.70898 L 433.70508 265.00586 L 469.79102 264.30469 z "
     id="path837" />
  <g
     id="g3106"
     transform="matrix(0.74211712,0,0,0.74211712,73.239582,72.917013)" />
</svg>
