<?xml version="1.0" encoding="UTF-8" standalone="no"?>
<svg
   xmlns:dc="http://purl.org/dc/elements/1.1/"
   xmlns:cc="http://creativecommons.org/ns#"
   xmlns:rdf="http://www.w3.org/1999/02/22-rdf-syntax-ns#"
   xmlns:svg="http://www.w3.org/2000/svg"
   xmlns="http://www.w3.org/2000/svg"
   xmlns:sodipodi="http://sodipodi.sourceforge.net/DTD/sodipodi-0.dtd"
   xmlns:inkscape="http://www.inkscape.org/namespaces/inkscape"
   enable-background="new 0 0 580 580"
   height="580"
   viewBox="0 0 580 580"
   width="580"
   version="1.1"
   id="svg857"
   sodipodi:docname="laipa_esoss.svg"
   inkscape:version="0.92.2 (5c3e80d, 2017-08-06)">
  <metadata
     id="metadata863">
    <rdf:RDF>
      <cc:Work
         rdf:about="">
        <dc:format>image/svg+xml</dc:format>
        <dc:type
           rdf:resource="http://purl.org/dc/dcmitype/StillImage" />
        <dc:title></dc:title>
      </cc:Work>
    </rdf:RDF>
  </metadata>
  <defs
     id="defs861" />
  <sodipodi:namedview
     pagecolor="#ffffff"
     bordercolor="#666666"
     borderopacity="1"
     objecttolerance="10"
     gridtolerance="10"
     guidetolerance="10"
     inkscape:pageopacity="0"
     inkscape:pageshadow="2"
     inkscape:window-width="1920"
     inkscape:window-height="1007"
     id="namedview859"
     showgrid="false"
     units="px"
     inkscape:zoom="0.8137931"
     inkscape:cx="357.10156"
     inkscape:cy="313.76124"
     inkscape:window-x="-9"
     inkscape:window-y="1071"
     inkscape:window-maximized="1"
     inkscape:current-layer="svg857"
     showguides="true"
     inkscape:guide-bbox="true"
     inkscape:object-nodes="false"
     inkscape:snap-others="false"
     inkscape:snap-grids="false">
    <sodipodi:guide
       position="287.84958,497.36229"
       orientation="0,1"
       id="guide974"
       inkscape:locked="false" />
    <sodipodi:guide
       position="416.6387,86.89024"
       orientation="0,1"
       id="guide976"
       inkscape:locked="false" />
  </sodipodi:namedview>
  <path
     id="path852"
     d="m 303.93681,35.728482 c -67.91799,0.0247 -140.42927,0.28576 -217.318674,0.35602 l -5.61721,1.59525 c -21.63402,6.14573 -38.00837,22.62431 -43.68712,43.96535 l -1.59831,6.00447 c 0,134.920558 0,269.841108 0,404.761668 l 1.59488,5.97878 c 6.2622,23.47493 24.60991,40.56729 48.13087,44.8383 v 0.006 c 146.771944,1.69523 223.457014,0.8559 407.692204,0.74456 l 5.61722,-1.59524 c 21.85402,-6.20818 37.47866,-21.80908 43.67854,-43.61275 l 1.60688,-5.65187 0.18501,-200.25241 c 0.16331,-176.65256 0.0584,-200.987648 -0.89079,-206.483368 -4.38275,-25.37506 -24.23671,-45.21421 -49.63325,-49.59325 -58.51758,-0.8743 -121.84227,-1.08593 -189.76025,-1.06122 z"
     style="fill:#ffffff;fill-opacity:1;stroke:#ffffff;stroke-width:71.43099213;stroke-miterlimit:4;stroke-dasharray:none;stroke-opacity:1"
     inkscape:connector-curvature="0"
     sodipodi:nodetypes="sccccccccccccsccs" />
  <g
     id="g985"
     transform="matrix(1.362095,0,0,1.362137,-726.1789,-177.53313)" />
  <g
     id="g1188"
     transform="matrix(0.82816346,0,0,0.82816346,50.603203,52.470297)" />
  <g
     id="g1940"
     transform="matrix(0.81738401,0,0,0.81738401,43.203568,43.34334)" />
  <g
     id="g2075"
     transform="matrix(0.82616049,0,0,0.82616049,75.248668,35.732714)" />
  <path
     style="fill:#4da329;fill-opacity:1;stroke-width:20.35811424"
     d="M 393.14453 35.716797 C 365.91267 35.715297 331.23911 35.738587 287.03906 35.779297 L 86.617188 35.962891 L 81 37.558594 C 59.366 43.707672 42.9912 60.196086 37.3125 81.548828 L 35.714844 87.556641 L 35.714844 290.04688 L 35.714844 492.53906 L 37.310547 498.52148 C 43.572647 522.00926 61.918453 539.10945 85.439453 543.38281 L 85.439453 543.38867 C 89.999253 544.21509 122.75889 544.35764 291.99609 544.25586 L 493.13281 544.13477 L 498.75 542.53906 C 520.604 536.32749 536.22783 520.71795 542.42773 498.90234 L 544.03516 493.24805 L 544.2207 292.88477 C 544.3839 116.13629 544.2793 91.787798 543.33008 86.289062 C 538.94728 60.900109 519.09181 41.051372 493.69531 36.669922 C 489.57016 35.956964 474.84012 35.721272 393.14453 35.716797 z M 300.68555 85.804688 C 306.93092 85.756487 313.26476 88.125244 318.31836 93.167969 C 320.16676 95.012396 322.35013 97.910537 323.16797 99.607422 C 330.19105 114.17822 321.28807 131.76043 305.35938 134.78125 C 301.30915 135.54935 300.16885 135.54388 296.01953 134.73047 C 288.5619 133.26858 281.55955 127.61143 278.15039 120.29492 C 276.64303 117.05979 276.37695 115.59 276.37695 110.49805 C 276.37695 105.40611 276.64303 103.93824 278.15039 100.70312 C 282.62073 91.109084 291.5577 85.875134 300.68555 85.804688 z M 293.32031 140.54883 C 296.98021 140.52653 300.57599 141.29223 303.78906 142.84766 C 305.432 143.64298 308.40472 145.82628 310.39648 147.69727 C 313.71165 150.81135 315.1287 153.27965 327.14062 176.89258 L 340.26172 202.6875 L 357.87305 214.83008 C 369.11141 222.57856 376.03363 227.79127 377.00195 229.23438 C 378.09746 230.86703 378.51953 232.45839 378.51953 234.95898 C 378.51953 242.7272 370.81591 248.04001 363.55469 245.2793 C 361.20452 244.38578 324.64828 219.18647 322.84766 217.21875 C 322.06196 216.36016 319.33203 211.47522 316.78125 206.36328 C 313.31786 199.42225 312.04122 197.40037 311.73633 198.37695 C 311.51177 199.09617 308.94927 210.16546 306.04297 222.97656 C 301.89618 241.25604 300.9255 246.4819 301.53516 247.25195 C 301.96238 247.79164 311.97288 259.67891 323.7793 273.66992 C 335.58571 287.66092 345.56696 299.95071 345.95898 300.97852 C 347.38354 304.71419 358.55069 365.46273 358.53711 369.40234 C 358.51911 374.53843 356.9258 378.02893 353.03125 381.45703 C 346.55486 387.15779 337.96696 387.18254 331.53125 381.51758 C 329.8903 380.07319 327.98029 377.78051 327.28711 376.42188 C 326.53975 374.95684 323.67543 361.64978 320.24805 343.72266 L 314.46875 313.49609 L 308.98438 307.50586 C 305.96771 304.21133 298.04655 295.52432 291.38281 288.20312 C 284.71912 280.88193 279.06207 274.81839 278.81055 274.72852 C 278.55904 274.63862 276.58954 282.87671 274.43359 293.0332 C 272.2777 303.18971 269.80525 313.10666 268.94141 315.07227 C 266.42573 320.79649 231.97144 378.44659 229.70312 380.72656 C 228.5696 381.86596 226.47186 383.35908 225.04297 384.04492 C 222.19922 385.40988 216.08791 385.97707 213.45508 385.12109 C 208.18728 383.40846 203.62814 379.08161 202.25195 374.48828 C 201.21561 371.02932 201.2787 366.4748 202.4043 363.33008 C 202.91212 361.91133 210.57222 348.62032 219.42773 333.79492 L 235.5293 306.83984 L 248.82227 248.02734 C 256.1338 215.68076 262.02222 189.12183 261.9082 189.00781 C 261.79419 188.89377 258.56049 191.36044 254.72266 194.48828 C 250.88476 197.61613 247.0571 200.71637 246.21484 201.37891 C 244.89396 202.41791 244.03649 205.54135 239.98242 224.0957 C 236.67797 239.21906 234.80025 246.44811 233.66016 248.4375 C 228.43515 257.5545 214.59766 254.59691 213.64844 244.16016 C 213.4318 241.77805 214.75224 234.67828 218.76758 216.65625 C 221.74451 203.29508 224.6746 191.20716 225.27734 189.79492 C 226.17418 187.69377 231.15569 183.35217 252.69531 165.89648 C 268.44166 153.13563 280.40273 143.92693 282.46484 142.97852 C 285.93529 141.38236 289.66042 140.57113 293.32031 140.54883 z M 131.5957 407.65234 L 131.5957 418.64453 L 131.5957 429.63672 L 111.94531 429.63672 L 92.294922 429.63672 L 92.478516 418.82031 L 92.660156 408.00586 L 112.12891 407.82812 L 131.5957 407.65234 z M 182.17969 407.65234 L 182.17969 418.64453 L 182.17969 429.63672 L 162.52734 429.63672 L 142.87695 429.63672 L 143.06055 418.82031 L 143.24414 408.00586 L 162.71094 407.82812 L 182.17969 407.65234 z M 232.76172 407.65234 L 232.76172 418.64453 L 232.76172 429.63672 L 213.11133 429.63672 L 193.46094 429.63672 L 193.64258 418.82031 L 193.82617 408.00586 L 213.29297 407.82812 L 232.76172 407.65234 z M 295.32422 407.65234 L 314.79297 407.82812 L 334.25977 408.00586 L 334.44336 418.82031 L 334.625 429.63672 L 314.97461 429.63672 L 295.32422 429.63672 L 295.32422 418.64453 L 295.32422 407.65234 z M 448.4043 407.65234 L 467.87109 407.82812 L 487.33984 408.00586 L 487.52148 418.82031 L 487.70508 429.63672 L 468.05469 429.63672 L 448.4043 429.63672 L 448.4043 418.64453 L 448.4043 407.65234 z M 345.90625 407.67188 L 365.54102 407.67188 L 385.17578 407.67188 L 385.17578 418.6543 L 385.17578 429.63672 L 365.54102 429.63672 L 345.90625 429.63672 L 345.90625 418.6543 L 345.90625 407.67188 z M 396.49023 407.67188 L 416.125 407.67188 L 435.75781 407.67188 L 435.75781 418.6543 L 435.75781 429.63672 L 416.125 429.63672 L 396.49023 429.63672 L 396.49023 418.6543 L 396.49023 407.67188 z M 244.67383 408.00586 L 264.04297 408.00586 L 283.41406 408.00586 L 283.54492 418.82031 L 283.67773 429.63672 L 264.04297 429.63672 L 244.4082 429.63672 L 244.54102 418.82031 L 244.67383 408.00586 z M 161.54688 448.9375 L 177.51953 448.9375 L 193.49414 448.9375 L 193.49414 471.56641 L 193.49414 494.19531 L 177.51953 494.19531 L 161.54688 494.19531 L 161.54688 471.56641 L 161.54688 448.9375 z M 386.17383 448.9375 L 402.31445 448.9375 L 418.45312 448.9375 L 418.45312 471.56641 L 418.45312 494.19531 L 402.31445 494.19531 L 386.17383 494.19531 L 386.17383 471.56641 L 386.17383 448.9375 z "
     id="path837" />
  <g
     id="g3106"
     transform="matrix(0.74211712,0,0,0.74211712,73.239582,72.917013)" />
</svg>
