<?xml version="1.0" encoding="UTF-8" standalone="no"?>
<svg
   xmlns:dc="http://purl.org/dc/elements/1.1/"
   xmlns:cc="http://creativecommons.org/ns#"
   xmlns:rdf="http://www.w3.org/1999/02/22-rdf-syntax-ns#"
   xmlns:svg="http://www.w3.org/2000/svg"
   xmlns="http://www.w3.org/2000/svg"
   xmlns:sodipodi="http://sodipodi.sourceforge.net/DTD/sodipodi-0.dtd"
   xmlns:inkscape="http://www.inkscape.org/namespaces/inkscape"
   enable-background="new 0 0 580 580"
   height="580"
   viewBox="0 0 580 580"
   width="580"
   version="1.1"
   id="svg857"
   sodipodi:docname="solins_esoss.svg"
   inkscape:version="0.92.2 (5c3e80d, 2017-08-06)">
  <metadata
     id="metadata863">
    <rdf:RDF>
      <cc:Work
         rdf:about="">
        <dc:format>image/svg+xml</dc:format>
        <dc:type
           rdf:resource="http://purl.org/dc/dcmitype/StillImage" />
        <dc:title />
      </cc:Work>
    </rdf:RDF>
  </metadata>
  <defs
     id="defs861" />
  <sodipodi:namedview
     pagecolor="#ffffff"
     bordercolor="#666666"
     borderopacity="1"
     objecttolerance="10"
     gridtolerance="10"
     guidetolerance="10"
     inkscape:pageopacity="0"
     inkscape:pageshadow="2"
     inkscape:window-width="1920"
     inkscape:window-height="1007"
     id="namedview859"
     showgrid="false"
     units="px"
     inkscape:zoom="0.8137931"
     inkscape:cx="413.24168"
     inkscape:cy="242.31828"
     inkscape:window-x="-9"
     inkscape:window-y="1071"
     inkscape:window-maximized="1"
     inkscape:current-layer="svg857"
     showguides="true"
     inkscape:guide-bbox="true"
     inkscape:object-nodes="false"
     inkscape:snap-others="false"
     inkscape:snap-grids="false">
    <sodipodi:guide
       position="287.84958,497.36229"
       orientation="0,1"
       id="guide974"
       inkscape:locked="false" />
    <sodipodi:guide
       position="416.6387,86.89024"
       orientation="0,1"
       id="guide976"
       inkscape:locked="false" />
  </sodipodi:namedview>
  <path
     id="path852"
     d="m 303.93681,35.728482 c -67.91799,0.0247 -140.42927,0.28576 -217.318674,0.35602 l -5.61721,1.59525 c -21.63402,6.14573 -38.00837,22.62431 -43.68712,43.96535 l -1.59831,6.00447 c 0,134.920558 0,269.841108 0,404.761668 l 1.59488,5.97878 c 6.2622,23.47493 24.60991,40.56729 48.13087,44.8383 v 0.006 c 146.771944,1.69523 223.457014,0.8559 407.692204,0.74456 l 5.61722,-1.59524 c 21.85402,-6.20818 37.47866,-21.80908 43.67854,-43.61275 l 1.60688,-5.65187 0.18501,-200.25241 c 0.16331,-176.65256 0.0584,-200.987648 -0.89079,-206.483368 -4.38275,-25.37506 -24.23671,-45.21421 -49.63325,-49.59325 -58.51758,-0.8743 -121.84227,-1.08593 -189.76025,-1.06122 z"
     style="fill:#ffffff;fill-opacity:1;stroke:#ffffff;stroke-width:71.43099213;stroke-miterlimit:4;stroke-dasharray:none;stroke-opacity:1"
     inkscape:connector-curvature="0"
     sodipodi:nodetypes="sccccccccccccsccs" />
  <g
     id="g985"
     transform="matrix(1.362095,0,0,1.362137,-726.1789,-177.53313)" />
  <g
     id="g1188"
     transform="matrix(0.82816346,0,0,0.82816346,50.603203,52.470297)" />
  <g
     id="g1940"
     transform="matrix(0.81738401,0,0,0.81738401,43.203568,43.34334)" />
  <g
     id="g2075"
     transform="matrix(0.82616049,0,0,0.82616049,75.248668,35.732714)" />
  <path
     style="fill:#4da329;fill-opacity:1;stroke-width:20.35811424"
     d="M 393.14453 35.716797 C 365.91267 35.715297 331.23911 35.738587 287.03906 35.779297 L 86.617188 35.962891 L 81 37.558594 C 59.366 43.707672 42.9912 60.196086 37.3125 81.548828 L 35.714844 87.556641 L 35.714844 290.04688 L 35.714844 492.53906 L 37.310547 498.52148 C 43.572647 522.00926 61.918453 539.10945 85.439453 543.38281 L 85.439453 543.38867 C 89.999253 544.21509 122.75889 544.35764 291.99609 544.25586 L 493.13281 544.13477 L 498.75 542.53906 C 520.604 536.32749 536.22783 520.71795 542.42773 498.90234 L 544.03516 493.24805 L 544.2207 292.88477 C 544.3839 116.13629 544.2793 91.787798 543.33008 86.289062 C 538.94728 60.900109 519.09181 41.051372 493.69531 36.669922 C 489.57016 35.956964 474.84012 35.721272 393.14453 35.716797 z M 72.089844 198.63867 L 507.91016 198.63867 L 507.91016 249.60742 L 442.86523 249.60742 L 442.86523 381.36133 L 414.8418 381.36133 L 414.8418 249.60742 L 165.1582 249.60742 L 165.1582 381.36133 L 137.13281 381.36133 L 137.13281 249.60742 L 72.089844 249.60742 L 72.089844 198.63867 z "
     id="path837" />
  <g
     id="g3106"
     transform="matrix(0.74211712,0,0,0.74211712,73.239582,72.917013)" />
</svg>
