<?xml version="1.0" encoding="UTF-8" standalone="no"?>
<svg
   xmlns:dc="http://purl.org/dc/elements/1.1/"
   xmlns:cc="http://creativecommons.org/ns#"
   xmlns:rdf="http://www.w3.org/1999/02/22-rdf-syntax-ns#"
   xmlns:svg="http://www.w3.org/2000/svg"
   xmlns="http://www.w3.org/2000/svg"
   xmlns:sodipodi="http://sodipodi.sourceforge.net/DTD/sodipodi-0.dtd"
   xmlns:inkscape="http://www.inkscape.org/namespaces/inkscape"
   enable-background="new 0 0 580 580"
   height="580"
   viewBox="0 0 580 580"
   width="580"
   version="1.1"
   id="svg857"
   sodipodi:docname="WC_esosa.svg"
   inkscape:version="0.92.2 (5c3e80d, 2017-08-06)">
  <metadata
     id="metadata863">
    <rdf:RDF>
      <cc:Work
         rdf:about="">
        <dc:format>image/svg+xml</dc:format>
        <dc:type
           rdf:resource="http://purl.org/dc/dcmitype/StillImage" />
        <dc:title></dc:title>
      </cc:Work>
    </rdf:RDF>
  </metadata>
  <defs
     id="defs861" />
  <sodipodi:namedview
     pagecolor="#ffffff"
     bordercolor="#666666"
     borderopacity="1"
     objecttolerance="10"
     gridtolerance="10"
     guidetolerance="10"
     inkscape:pageopacity="0"
     inkscape:pageshadow="2"
     inkscape:window-width="1920"
     inkscape:window-height="1007"
     id="namedview859"
     showgrid="false"
     units="px"
     inkscape:zoom="0.28771931"
     inkscape:cx="1212.7222"
     inkscape:cy="93.787967"
     inkscape:window-x="-9"
     inkscape:window-y="1071"
     inkscape:window-maximized="1"
     inkscape:current-layer="svg857"
     showguides="true"
     inkscape:guide-bbox="true"
     inkscape:object-nodes="false"
     inkscape:snap-others="false"
     inkscape:snap-grids="false">
    <sodipodi:guide
       position="287.84958,497.36229"
       orientation="0,1"
       id="guide974"
       inkscape:locked="false" />
    <sodipodi:guide
       position="416.6387,86.89024"
       orientation="0,1"
       id="guide976"
       inkscape:locked="false" />
  </sodipodi:namedview>
  <path
     id="path852"
     d="m 303.93681,35.728482 c -67.91799,0.0247 -140.42927,0.28576 -217.318674,0.35602 l -5.61721,1.59525 c -21.63402,6.14573 -38.00837,22.62431 -43.68712,43.96535 l -1.59831,6.00447 c 0,134.920558 0,269.841108 0,404.761668 l 1.59488,5.97878 c 6.2622,23.47493 24.60991,40.56729 48.13087,44.8383 v 0.006 c 146.771944,1.69523 223.457014,0.8559 407.692204,0.74456 l 5.61722,-1.59524 c 21.85402,-6.20818 37.47866,-21.80908 43.67854,-43.61275 l 1.60688,-5.65187 0.18501,-200.25241 c 0.16331,-176.65256 0.0584,-200.987648 -0.89079,-206.483368 -4.38275,-25.37506 -24.23671,-45.21421 -49.63325,-49.59325 -58.51758,-0.8743 -121.84227,-1.08593 -189.76025,-1.06122 z"
     style="fill:#ffffff;fill-opacity:1;stroke:#ffffff;stroke-width:71.43099213;stroke-miterlimit:4;stroke-dasharray:none;stroke-opacity:1"
     inkscape:connector-curvature="0"
     sodipodi:nodetypes="sccccccccccccsccs" />
  <path
     style="fill:#4da329;fill-opacity:1;stroke-width:20.35811424"
     d="M 393.14453 35.716797 C 365.91267 35.715297 331.23911 35.738587 287.03906 35.779297 L 86.617188 35.962891 L 81 37.558594 C 59.366 43.707672 42.9912 60.196086 37.3125 81.548828 L 35.714844 87.556641 L 35.714844 290.04688 L 35.714844 492.53906 L 37.310547 498.52148 C 43.572647 522.00926 61.918453 539.10945 85.439453 543.38281 L 85.439453 543.38867 C 89.999253 544.21509 122.75889 544.35764 291.99609 544.25586 L 493.13281 544.13477 L 498.75 542.53906 C 520.604 536.32749 536.22783 520.71795 542.42773 498.90234 L 544.03516 493.24805 L 544.2207 292.88477 C 544.3839 116.13629 544.2793 91.787798 543.33008 86.289062 C 538.94728 60.900109 519.09181 41.051372 493.69531 36.669922 C 489.57016 35.956964 474.84012 35.721272 393.14453 35.716797 z M 284.67969 103.13086 L 314.33789 103.13086 L 314.33789 476.86914 L 284.67969 476.86914 L 284.67969 103.13086 z M 166.9707 104.25586 C 175.54137 104.25669 182.81297 107.23869 188.7832 113.20312 C 194.75343 119.16839 197.73828 126.44313 197.73828 135.02539 C 197.73828 143.23249 194.75343 150.31877 188.7832 156.2832 C 182.81297 162.24846 175.54219 165.23047 166.9707 165.23047 C 158.7636 165.23047 151.67448 162.24846 145.70508 156.2832 C 139.73402 150.31877 136.75 143.23249 136.75 135.02539 C 136.75 126.4423 139.73485 119.16839 145.70508 113.20312 C 151.67531 107.23869 158.7636 104.25669 166.9707 104.25586 z M 428.68359 104.25781 C 436.88987 104.25864 443.97899 107.1494 449.94922 112.93164 C 455.91945 118.71471 458.90347 125.89027 458.9043 134.46094 C 458.90347 142.66887 455.91945 149.75829 449.94922 155.72852 C 443.97899 161.69875 436.88987 164.68359 428.68359 164.68359 C 420.47567 164.68442 413.39104 161.69875 407.42578 155.72852 C 401.46135 149.75829 398.47769 142.66887 398.47852 134.46094 C 398.47769 125.89027 401.46135 118.71471 407.42578 112.93164 C 413.39021 107.1494 420.47567 104.25864 428.68359 104.25781 z M 388.40625 170.83008 L 468.41406 170.83008 C 479.97854 170.83008 489.39812 174.84027 496.67188 182.85938 C 503.94481 190.87931 507.58345 200.29409 507.58594 211.10742 L 507.58594 303.42773 C 507.58511 312.75037 503.66415 317.41211 495.82227 317.41211 C 487.99032 317.41211 484.07339 312.75037 484.07422 303.42773 L 484.07422 212.79883 L 470.08984 212.79883 L 470.08984 458.97461 C 470.08902 470.16393 464.30749 475.75977 452.74219 475.75977 C 441.55204 475.75977 435.95703 470.16393 435.95703 458.97461 L 435.95703 316.30273 L 421.41016 316.30273 L 421.41016 458.97461 C 421.41016 470.16393 415.81627 475.75977 404.62695 475.75977 C 393.43681 475.75977 387.8418 470.16393 387.8418 458.97461 L 387.8418 212.79883 L 373.29492 212.79883 L 373.29492 303.42773 C 373.29409 312.38681 369.37994 316.86719 361.54883 316.86719 C 353.34173 316.86719 349.23633 312.38598 349.23633 303.42773 L 349.23633 210.5625 C 349.23633 199.37318 353.06202 189.95443 360.71094 182.30469 C 368.35986 174.6566 377.59209 170.83008 388.40625 170.83008 z M 135.64062 171.39453 L 195.50195 171.39453 C 205.20058 171.39453 214.15228 174.75122 222.35938 181.4668 C 229.06336 187.05607 233.35012 192.83843 235.2168 198.81445 L 260.96289 284.4082 C 261.70244 285.89973 262.07227 287.57863 262.07227 289.44531 C 262.07227 298.02757 257.78148 302.31836 249.19922 302.31836 C 243.23396 302.31836 239.31785 298.96167 237.45117 292.24609 L 213.95703 213.9082 L 200.53711 213.9082 L 239.68945 353.2168 L 202.21094 353.2168 L 202.21094 462.32227 C 202.21094 471.6449 197.54837 476.30664 188.22656 476.30664 C 178.90393 476.30664 174.24414 471.6449 174.24414 462.32227 L 174.24414 352.67188 L 160.24219 352.67188 L 160.24219 461.75781 C 160.24219 471.45643 155.5824 476.30664 146.25977 476.30664 C 136.93713 476.30664 132.27539 471.45643 132.27539 461.75781 L 132.27539 353.2168 L 94.78125 353.2168 L 133.38672 213.9082 L 120.5293 213.9082 L 97.035156 292.24609 C 95.168476 298.96167 91.247512 302.31836 85.271484 302.31836 C 76.699993 302.31836 72.414062 298.0284 72.414062 289.44531 C 72.414063 287.95462 72.783059 286.27488 73.523438 284.4082 L 99.271484 198.81445 C 101.12657 192.46327 104.85421 186.68009 110.45508 181.4668 C 117.91021 174.75122 126.30639 171.39453 135.64062 171.39453 z "
     id="path837" />
  <g
     id="g985"
     transform="matrix(1.362095,0,0,1.362137,-726.1789,-177.53313)" />
  <g
     id="g1188"
     transform="matrix(0.82816346,0,0,0.82816346,50.603203,52.470297)" />
</svg>
